<svg width="91" height="41" viewBox="0 0 91 41" fill="none" xmlns="http://www.w3.org/2000/svg">
<path d="M0 4.07037C0 1.86544 1.79117 0.0779802 4.00069 0.0779802L86.9993 0C89.2088 0 91 1.78745 91 3.99239V36.9296C91 39.1346 89.2088 40.922 86.9993 40.922L4.00068 41C1.79117 41 0 39.2125 0 37.0076V4.07037Z" fill="#0074E5"/>
<path d="M71.648 29.854V26.3407H72.5881L73.5283 29.0455L74.4984 26.3407H75.4086V29.854H74.7685V27.8179C74.7685 27.7646 74.7718 27.6615 74.7785 27.5085C74.7852 27.3488 74.7918 27.229 74.7985 27.1492H74.7585L73.7483 29.854H73.2182L72.2581 27.1492H72.2181C72.2247 27.2556 72.2314 27.3754 72.2381 27.5085C72.2447 27.6415 72.2481 27.728 72.2481 27.768V29.854H71.648ZM69.5776 29.854V26.8797H68.5674V26.3407H71.2279V26.8797H70.2077V29.854H69.5776Z" fill="white"/>
<path d="M14.1252 32.8954L13.5972 31.0629H10.6336L10.1057 32.8954H7.87398L10.7896 24.3078H13.4053L16.3569 32.8954H14.1252ZM13.1413 29.3622L12.6374 27.6494C12.5974 27.5057 12.5414 27.3141 12.4694 27.0745C12.4054 26.827 12.3374 26.5755 12.2654 26.32C12.2014 26.0645 12.1494 25.8489 12.1094 25.6732C12.0694 25.8489 12.0174 26.0684 11.9535 26.3319C11.8895 26.5875 11.8255 26.839 11.7615 27.0865C11.6975 27.3261 11.6455 27.5137 11.6055 27.6494L11.1016 29.3622H13.1413Z" fill="white"/>
<path d="M20.0528 33.0152C19.0609 33.0152 18.285 32.7477 17.7251 32.2127C17.1652 31.6698 16.8852 30.8114 16.8852 29.6376C16.8852 28.8392 17.0292 28.1884 17.3171 27.6854C17.6051 27.1743 17.997 26.7991 18.493 26.5595C18.9969 26.32 19.5728 26.2002 20.2208 26.2002C20.6527 26.2002 21.0407 26.2441 21.3846 26.3319C21.7286 26.4198 22.0405 26.5316 22.3205 26.6673L21.7326 28.1884C21.4526 28.0766 21.1926 27.9848 20.9527 27.9129C20.7127 27.8411 20.4687 27.8051 20.2208 27.8051C19.8048 27.8051 19.4849 27.9568 19.2609 28.2603C19.0449 28.5557 18.9369 29.0108 18.9369 29.6257C18.9369 30.2405 19.0529 30.6916 19.2849 30.9791C19.5169 31.2586 19.8328 31.3983 20.2328 31.3983C20.5767 31.3983 20.9047 31.3504 21.2166 31.2546C21.5286 31.1508 21.8246 31.007 22.1045 30.8234V32.4762C21.8246 32.6599 21.5246 32.7956 21.2046 32.8835C20.8927 32.9713 20.5087 33.0152 20.0528 33.0152Z" fill="white"/>
<path d="M26.3684 33.0152C25.3765 33.0152 24.6006 32.7477 24.0407 32.2127C23.4807 31.6698 23.2008 30.8114 23.2008 29.6376C23.2008 28.8392 23.3448 28.1884 23.6327 27.6854C23.9207 27.1743 24.3126 26.7991 24.8086 26.5595C25.3125 26.32 25.8884 26.2002 26.5364 26.2002C26.9683 26.2002 27.3562 26.2441 27.7002 26.3319C28.0442 26.4198 28.3561 26.5316 28.6361 26.6673L28.0482 28.1884C27.7682 28.0766 27.5082 27.9848 27.2683 27.9129C27.0283 27.8411 26.7843 27.8051 26.5364 27.8051C26.1204 27.8051 25.8004 27.9568 25.5765 28.2603C25.3605 28.5557 25.2525 29.0108 25.2525 29.6257C25.2525 30.2405 25.3685 30.6916 25.6005 30.9791C25.8324 31.2586 26.1484 31.3983 26.5483 31.3983C26.8923 31.3983 27.2203 31.3504 27.5322 31.2546C27.8442 31.1508 28.1401 31.007 28.4201 30.8234V32.4762C28.1401 32.6599 27.8402 32.7956 27.5202 32.8835C27.2083 32.9713 26.8243 33.0152 26.3684 33.0152Z" fill="white"/>
<path d="M30.8842 23.7089C31.1802 23.7089 31.4321 23.7728 31.6401 23.9006C31.8561 24.0283 31.9641 24.2759 31.9641 24.6432C31.9641 25.0025 31.8561 25.25 31.6401 25.3857C31.4321 25.5135 31.1802 25.5774 30.8842 25.5774C30.5802 25.5774 30.3203 25.5135 30.1043 25.3857C29.8963 25.25 29.7923 25.0025 29.7923 24.6432C29.7923 24.2759 29.8963 24.0283 30.1043 23.9006C30.3203 23.7728 30.5802 23.7089 30.8842 23.7089ZM31.8801 26.32V32.8954H29.8643V26.32H31.8801Z" fill="white"/>
<path d="M35.701 33.0152C34.9891 33.0152 34.4092 32.7278 33.9612 32.1529C33.5133 31.5779 33.2893 30.7316 33.2893 29.6137C33.2893 28.4878 33.5173 27.6375 33.9732 27.0626C34.4292 26.4876 35.0251 26.2002 35.761 26.2002C36.2249 26.2002 36.6009 26.292 36.8889 26.4757C37.1768 26.6593 37.4088 26.8869 37.5848 27.1584H37.6328C37.6088 27.0146 37.5808 26.811 37.5488 26.5475C37.5248 26.2761 37.5128 26.0086 37.5128 25.7451V23.7928H39.5405V32.8954H38.0047L37.5968 32.0451H37.5128C37.3448 32.3165 37.1168 32.5481 36.8289 32.7397C36.5489 32.9234 36.1729 33.0152 35.701 33.0152ZM36.4689 31.4103C36.9009 31.4103 37.2048 31.2785 37.3808 31.015C37.5648 30.7515 37.6608 30.3523 37.6688 29.8173V29.6376C37.6688 29.0468 37.5808 28.5996 37.4048 28.2962C37.2368 27.9848 36.9168 27.8291 36.4449 27.8291C36.101 27.8291 35.829 27.9808 35.629 28.2842C35.429 28.5876 35.3291 29.0428 35.3291 29.6496C35.3291 30.2485 35.429 30.6916 35.629 30.9791C35.837 31.2665 36.117 31.4103 36.4689 31.4103Z" fill="white"/>
<path d="M44.1203 26.2002C45.0481 26.2002 45.784 26.4557 46.328 26.9667C46.8719 27.4698 47.1439 28.2124 47.1439 29.1945V30.1287H42.9804C42.9964 30.5599 43.1364 30.9032 43.4004 31.1587C43.6643 31.4143 44.0403 31.542 44.5282 31.542C44.9522 31.542 45.3361 31.5021 45.6801 31.4222C46.024 31.3424 46.38 31.2146 46.7479 31.039V32.5361C46.428 32.7038 46.084 32.8236 45.7161 32.8954C45.3481 32.9753 44.8962 33.0152 44.3602 33.0152C43.6963 33.0152 43.1044 32.8954 42.5845 32.6559C42.0725 32.4164 41.6686 32.0491 41.3726 31.554C41.0847 31.0589 40.9407 30.4241 40.9407 29.6496C40.9407 28.4838 41.2326 27.6175 41.8166 27.0506C42.4005 26.4837 43.1684 26.2002 44.1203 26.2002ZM44.1563 27.6015C43.8443 27.6015 43.5843 27.7013 43.3764 27.901C43.1764 28.1006 43.0564 28.408 43.0164 28.8232H45.2841C45.2761 28.4719 45.1761 28.1804 44.9841 27.9489C44.8002 27.7173 44.5242 27.6015 44.1563 27.6015Z" fill="white"/>
<path d="M52.4297 26.2002C53.1256 26.2002 53.6855 26.3918 54.1094 26.7751C54.5414 27.1504 54.7574 27.7612 54.7574 28.6076V32.8954H52.7416V29.1705C52.7416 28.7154 52.6656 28.3721 52.5136 28.1405C52.3617 27.9089 52.1217 27.7932 51.7937 27.7932C51.2978 27.7932 50.9618 27.9768 50.7859 28.3441C50.6179 28.7034 50.5339 29.2224 50.5339 29.9011V32.8954H48.5062V26.32H50.042L50.3179 27.1703H50.4139C50.6219 26.851 50.8979 26.6114 51.2418 26.4517C51.5938 26.284 51.9897 26.2002 52.4297 26.2002Z" fill="white"/>
<path d="M59.4498 31.4103C59.6498 31.4103 59.8377 31.3903 60.0137 31.3504C60.1977 31.3105 60.3817 31.2586 60.5656 31.1947V32.6798C60.3497 32.7757 60.1017 32.8555 59.8217 32.9194C59.5418 32.9833 59.2098 33.0152 58.8259 33.0152C58.4179 33.0152 58.054 32.9513 57.734 32.8236C57.422 32.6878 57.1741 32.4603 56.9901 32.1409C56.8141 31.8135 56.7261 31.3624 56.7261 30.7875V27.8291H55.8862V26.9907L56.8941 26.3439L57.446 24.9546H58.7419V26.32H60.4936V27.8291H58.7419V30.7156C58.7419 30.9472 58.8059 31.1228 58.9338 31.2426C59.0618 31.3544 59.2338 31.4103 59.4498 31.4103Z" fill="white"/>
<path d="M66.5563 30.9072C66.5563 31.562 66.3284 32.077 65.8724 32.4523C65.4245 32.8276 64.7206 33.0152 63.7607 33.0152C63.2967 33.0152 62.8888 32.9873 62.5369 32.9314C62.1929 32.8755 61.8449 32.7757 61.493 32.6319V31.003C61.8769 31.1787 62.2769 31.3144 62.6928 31.4103C63.1088 31.4981 63.4607 31.542 63.7487 31.542C64.0527 31.542 64.2726 31.5021 64.4086 31.4222C64.5446 31.3424 64.6126 31.2306 64.6126 31.0869C64.6126 30.9831 64.5766 30.8913 64.5046 30.8114C64.4406 30.7316 64.3046 30.6437 64.0966 30.5479C63.8967 30.4441 63.5967 30.3084 63.1968 30.1407C62.8048 29.981 62.4809 29.8133 62.2249 29.6376C61.9769 29.454 61.7889 29.2424 61.661 29.0029C61.541 28.7553 61.481 28.4479 61.481 28.0806C61.481 27.4578 61.721 26.9907 62.2009 26.6793C62.6808 26.3599 63.3247 26.2002 64.1326 26.2002C64.5566 26.2002 64.9565 26.2441 65.3325 26.3319C65.7084 26.4198 66.0964 26.5555 66.4963 26.7392L65.9204 28.1046C65.6005 27.9608 65.2845 27.8451 64.9725 27.7572C64.6606 27.6694 64.3806 27.6255 64.1326 27.6255C63.6687 27.6255 63.4367 27.7453 63.4367 27.9848C63.4367 28.0806 63.4687 28.1645 63.5327 28.2363C63.6047 28.3002 63.7367 28.38 63.9287 28.4759C64.1286 28.5637 64.4166 28.6875 64.7926 28.8472C65.1685 28.9989 65.4885 29.1586 65.7524 29.3262C66.0164 29.4939 66.2164 29.7055 66.3524 29.961C66.4883 30.2086 66.5563 30.524 66.5563 30.9072Z" fill="white"/>
<path d="M16.1915 17.1654H13.5519L10.0963 10.9014H10.0483C10.0563 11.0531 10.0643 11.2567 10.0723 11.5122C10.0883 11.7677 10.1043 12.0472 10.1203 12.3506C10.1363 12.646 10.1483 12.9335 10.1563 13.2129V17.1654H8.33254V8.61371H10.9602L14.4038 14.8059H14.4398C14.4318 14.6622 14.4198 14.4666 14.4038 14.219C14.3958 13.9715 14.3838 13.704 14.3678 13.4166C14.3598 13.1211 14.3558 12.8417 14.3558 12.5782V8.61371H16.1915V17.1654Z" fill="white"/>
<path d="M24.1974 13.8597C24.1974 14.9616 23.9054 15.808 23.3215 16.3989C22.7456 16.9898 21.9537 17.2852 20.9458 17.2852C20.3219 17.2852 19.766 17.1534 19.278 16.8899C18.7981 16.6264 18.4181 16.2392 18.1382 15.7282C17.8662 15.2171 17.7302 14.5943 17.7302 13.8597C17.7302 12.7738 18.0182 11.9394 18.5941 11.3565C19.17 10.7656 19.9659 10.4702 20.9818 10.4702C21.6057 10.4702 22.1577 10.6019 22.6376 10.8654C23.1255 11.1289 23.5055 11.5122 23.7775 12.0152C24.0574 12.5183 24.1974 13.1331 24.1974 13.8597ZM19.782 13.8597C19.782 14.4666 19.874 14.9297 20.0579 15.2491C20.2419 15.5685 20.5459 15.7282 20.9698 15.7282C21.3858 15.7282 21.6857 15.5685 21.8697 15.2491C22.0537 14.9297 22.1457 14.4666 22.1457 13.8597C22.1457 13.2529 22.0537 12.7977 21.8697 12.4943C21.6857 12.1829 21.3818 12.0272 20.9578 12.0272C20.5419 12.0272 20.2419 12.1829 20.0579 12.4943C19.874 12.7977 19.782 13.2529 19.782 13.8597Z" fill="white"/>
<path d="M31.4891 8.61371C33.7928 8.61371 34.9446 9.46409 34.9446 11.1649C34.9446 11.7238 34.7967 12.1869 34.5007 12.5542C34.2127 12.9215 33.8488 13.2169 33.4088 13.4405L35.9165 17.1654H33.6248L31.6931 13.9555H30.8892V17.1654H28.8494V8.61371H31.4891ZM31.4051 10.2187H30.8892V12.3626H31.4051C31.893 12.3626 32.257 12.2747 32.4969 12.0991C32.7449 11.9154 32.8689 11.628 32.8689 11.2367C32.8689 10.8934 32.7529 10.6379 32.5209 10.4702C32.289 10.3025 31.917 10.2187 31.4051 10.2187Z" fill="white"/>
<path d="M39.5637 10.4702C40.4915 10.4702 41.2274 10.7257 41.7714 11.2367C42.3153 11.7398 42.5873 12.4823 42.5873 13.4645V14.3987H38.4238C38.4398 14.8299 38.5798 15.1732 38.8438 15.4287C39.1077 15.6842 39.4837 15.812 39.9716 15.812C40.3956 15.812 40.7795 15.7721 41.1235 15.6922C41.4674 15.6124 41.8234 15.4846 42.1913 15.309V16.8061C41.8714 16.9738 41.5274 17.0936 41.1595 17.1654C40.7915 17.2453 40.3396 17.2852 39.8036 17.2852C39.1397 17.2852 38.5478 17.1654 38.0279 16.9259C37.5159 16.6863 37.112 16.319 36.816 15.824C36.5281 15.3289 36.3841 14.6941 36.3841 13.9196C36.3841 12.7538 36.676 11.8875 37.26 11.3206C37.8439 10.7536 38.6118 10.4702 39.5637 10.4702ZM39.5997 11.8715C39.2877 11.8715 39.0277 11.9713 38.8198 12.1709C38.6198 12.3706 38.4998 12.678 38.4598 13.0932H40.7275C40.7195 12.7418 40.6195 12.4504 40.4275 12.2188C40.2436 11.9873 39.9676 11.8715 39.5997 11.8715Z" fill="white"/>
<path d="M47.7891 10.4702C48.525 10.4702 49.1129 10.7616 49.5528 11.3445C49.9928 11.9194 50.2128 12.7578 50.2128 13.8597C50.2128 14.6103 50.1048 15.2411 49.8888 15.7521C49.6728 16.2552 49.3769 16.6384 49.0009 16.9019C48.633 17.1574 48.209 17.2852 47.7291 17.2852C47.2571 17.2852 46.8852 17.2014 46.6132 17.0337C46.3493 16.866 46.1373 16.6823 45.9773 16.4827H45.8933C45.9173 16.6344 45.9373 16.7941 45.9533 16.9618C45.9693 17.1295 45.9773 17.3091 45.9773 17.5008V20.0399H43.9496V10.5899H45.5934L45.8813 11.4284H45.9773C46.1453 11.1728 46.3732 10.9493 46.6612 10.7576C46.9492 10.566 47.3251 10.4702 47.7891 10.4702ZM47.0812 12.0631C46.6732 12.0631 46.3892 12.1949 46.2293 12.4584C46.0693 12.7219 45.9853 13.1251 45.9773 13.6681V13.8477C45.9773 14.4306 46.0573 14.8778 46.2173 15.1892C46.3772 15.5006 46.6732 15.6563 47.1052 15.6563C47.8011 15.6563 48.149 15.0495 48.149 13.8358C48.149 13.2289 48.061 12.7818 47.8851 12.4943C47.7091 12.2069 47.4411 12.0631 47.0812 12.0631Z" fill="white"/>
<path d="M57.7321 13.8597C57.7321 14.9616 57.4402 15.808 56.8562 16.3989C56.2803 16.9898 55.4884 17.2852 54.4805 17.2852C53.8566 17.2852 53.3007 17.1534 52.8128 16.8899C52.3328 16.6264 51.9529 16.2392 51.6729 15.7282C51.4009 15.2171 51.265 14.5943 51.265 13.8597C51.265 12.7738 51.5529 11.9394 52.1288 11.3565C52.7048 10.7656 53.5007 10.4702 54.5165 10.4702C55.1405 10.4702 55.6924 10.6019 56.1723 10.8654C56.6603 11.1289 57.0402 11.5122 57.3122 12.0152C57.5921 12.5183 57.7321 13.1331 57.7321 13.8597ZM53.3167 13.8597C53.3167 14.4666 53.4087 14.9297 53.5927 15.2491C53.7766 15.5685 54.0806 15.7282 54.5045 15.7282C54.9205 15.7282 55.2204 15.5685 55.4044 15.2491C55.5884 14.9297 55.6804 14.4666 55.6804 13.8597C55.6804 13.2529 55.5884 12.7977 55.4044 12.4943C55.2204 12.1829 54.9165 12.0272 54.4925 12.0272C54.0766 12.0272 53.7766 12.1829 53.5927 12.4943C53.4087 12.7977 53.3167 13.2529 53.3167 13.8597Z" fill="white"/>
<path d="M62.9509 10.4702C63.0549 10.4702 63.1709 10.4782 63.2988 10.4941C63.4268 10.5021 63.5268 10.5141 63.5988 10.5301L63.4308 12.4225C63.2708 12.3825 63.0549 12.3626 62.7829 12.3626C62.5269 12.3626 62.271 12.4065 62.015 12.4943C61.767 12.5742 61.5591 12.7219 61.3911 12.9375C61.2311 13.1531 61.1511 13.4645 61.1511 13.8717V17.1654H59.1234V10.5899H60.6472L60.9591 11.6679H61.0431C61.2351 11.3405 61.4951 11.0611 61.823 10.8295C62.159 10.5899 62.5349 10.4702 62.9509 10.4702Z" fill="white"/>
<path d="M67.6415 15.6802C67.8415 15.6802 68.0295 15.6603 68.2055 15.6204C68.3894 15.5804 68.5734 15.5285 68.7574 15.4647V16.9498C68.5414 17.0456 68.2934 17.1255 68.0135 17.1894C67.7335 17.2533 67.4016 17.2852 67.0176 17.2852C66.6097 17.2852 66.2457 17.2213 65.9257 17.0936C65.6138 16.9578 65.3658 16.7302 65.1818 16.4109C65.0059 16.0835 64.9179 15.6323 64.9179 15.0574V12.0991H64.078V11.2607L65.0859 10.6139L65.6378 9.22455H66.9336V10.5899H68.6854V12.0991H66.9336V14.9856C66.9336 15.2171 66.9976 15.3928 67.1256 15.5126C67.2536 15.6244 67.4256 15.6802 67.6415 15.6802Z" fill="white"/>
<path d="M72.8523 10.4702C73.7802 10.4702 74.5161 10.7257 75.06 11.2367C75.604 11.7398 75.8759 12.4823 75.8759 13.4645V14.3987H71.7125C71.7285 14.8299 71.8685 15.1732 72.1324 15.4287C72.3964 15.6842 72.7723 15.812 73.2603 15.812C73.6842 15.812 74.0682 15.7721 74.4121 15.6922C74.7561 15.6124 75.112 15.4846 75.48 15.309V16.8061C75.16 16.9738 74.8161 17.0936 74.4481 17.1654C74.0802 17.2453 73.6282 17.2852 73.0923 17.2852C72.4284 17.2852 71.8365 17.1654 71.3165 16.9259C70.8046 16.6863 70.4006 16.319 70.1047 15.824C69.8167 15.3289 69.6727 14.6941 69.6727 13.9196C69.6727 12.7538 69.9647 11.8875 70.5486 11.3206C71.1325 10.7536 71.9004 10.4702 72.8523 10.4702ZM72.8883 11.8715C72.5764 11.8715 72.3164 11.9713 72.1084 12.1709C71.9084 12.3706 71.7885 12.678 71.7485 13.0932H74.0162C74.0082 12.7418 73.9082 12.4504 73.7162 12.2188C73.5322 11.9873 73.2563 11.8715 72.8883 11.8715Z" fill="white"/>
<path d="M79.314 17.2852C78.602 17.2852 78.0221 16.9977 77.5742 16.4228C77.1262 15.8479 76.9023 15.0015 76.9023 13.8837C76.9023 12.7578 77.1302 11.9074 77.5862 11.3325C78.0421 10.7576 78.638 10.4702 79.374 10.4702C79.8379 10.4702 80.2138 10.562 80.5018 10.7457C80.7898 10.9293 81.0217 11.1569 81.1977 11.4284H81.2457C81.2217 11.2846 81.1937 11.081 81.1617 10.8175C81.1377 10.546 81.1257 10.2785 81.1257 10.015V8.06276H83.1535V17.1654H81.6177L81.2097 16.315H81.1257C80.9577 16.5865 80.7298 16.8181 80.4418 17.0097C80.1618 17.1934 79.7859 17.2852 79.314 17.2852ZM80.0819 15.6802C80.5138 15.6802 80.8178 15.5485 80.9937 15.285C81.1777 15.0215 81.2737 14.6223 81.2817 14.0873V13.9076C81.2817 13.3168 81.1937 12.8696 81.0177 12.5662C80.8498 12.2548 80.5298 12.0991 80.0579 12.0991C79.7139 12.0991 79.4419 12.2508 79.242 12.5542C79.042 12.8576 78.942 13.3128 78.942 13.9196C78.942 14.5185 79.042 14.9616 79.242 15.2491C79.4499 15.5365 79.7299 15.6802 80.0819 15.6802Z" fill="white"/>
</svg>
