<svg xmlns="http://www.w3.org/2000/svg" xmlns:xlink="http://www.w3.org/1999/xlink" height="67.365" width="67.365" viewbox="0 0 67.365 67.365"><defs><linearGradient gradientUnits="userSpaceOnUse" gradientTransform="scale(1.55964 .64117)" id="h" y2="65.274" x2="13.176" y1="32.279" x1="13.176"><stop offset="0%" stop-color="#767676"/><stop offset="100%" stop-color="#202327"/></linearGradient><linearGradient gradientUnits="userSpaceOnUse" gradientTransform="scale(1.01546 .98478)" id="i" y2="44.871" x2="30.837" y1="10.195" x1="30.837"><stop offset="0%" stop-opacity=".968" stop-color="#1294EF"/><stop offset="100%" stop-color="#4FBCFA"/></linearGradient><linearGradient gradientUnits="userSpaceOnUse" gradientTransform="scale(1.14331 .87465)" id="j" y2="48.726" x2="20.052" y1="35.982" x1="10.105"><stop offset="0%" stop-opacity=".968" stop-color="#1294EF"/><stop offset="100%" stop-color="#4FBCFA"/></linearGradient><linearGradient gradientUnits="userSpaceOnUse" gradientTransform="scale(1.11989 .89295)" id="k" y2="49.482" x2="27.753" y1="45.192" x1="27.753"><stop offset="0%" stop-opacity=".968" stop-color="#1294EF"/><stop offset="100%" stop-color="#4FBCFA"/></linearGradient><linearGradient gradientUnits="userSpaceOnUse" gradientTransform="scale(.79419 1.25915)" id="l" y2="21.234" x2="33.765" y1="2.75" x1="33.765"><stop offset="0%" stop-color="#F3F3F2"/><stop offset="100%" stop-color="#AAA"/></linearGradient><linearGradient gradientUnits="userSpaceOnUse" gradientTransform="scale(3.27777 .30509)" id="m" y2="95.118" x2="7.659" y1="87.569" x1="7.659"><stop offset="0%" stop-color="#DADCDF"/><stop offset="100%" stop-color="#B3B7BB"/></linearGradient><linearGradient gradientUnits="userSpaceOnUse" gradientTransform="scale(4.69114 .21317)" id="n" y2="179.91" x2="8.357" y1="176.983" x1="8.357"><stop offset="0%" stop-color="#C7C7C7"/><stop offset="100%" stop-color="#969696"/></linearGradient><linearGradient gradientUnits="userSpaceOnUse" gradientTransform="scale(4.56424 .2191)" id="o" y2="185.692" x2="8.297" y1="182.752" x1="8.297"><stop offset="0%" stop-color="#C7C7C7"/><stop offset="100%" stop-color="#969696"/></linearGradient><linearGradient gradientUnits="userSpaceOnUse" gradientTransform="scale(3.95695 .25272)" id="p" y2="170.216" x2="9.614" y1="167.929" x1="9.614"><stop offset="0%" stop-color="#C7C7C7"/><stop offset="100%" stop-color="#969696"/></linearGradient><linearGradient gradientUnits="userSpaceOnUse" gradientTransform="scale(.81689 1.22416)" id="q" y2="29.388" x2="56.111" y1="21.054" x1="56.111"><stop offset="0%" stop-opacity=".968" stop-color="#1294EF"/><stop offset="100%" stop-color="#4FBCFA"/></linearGradient><filter id="b" filterUnits="objectBoundingBox" height="1.311" width="1.311" y="-.104" x="-.156"><feOffset result="shadowOffsetOuter1" in="SourceAlpha" dy="3"/><feGaussianBlur result="shadowBlurOuter1" in="shadowOffsetOuter1" stdDeviation="2.5"/><feColorMatrix in="shadowBlurOuter1" values="0 0 0 0 0 0 0 0 0 0 0 0 0 0 0 0 0 0 0.03 0"/></filter><filter id="d" filterUnits="objectBoundingBox" height="1.364" width="1.364" y="-.121" x="-.182"><feOffset result="shadowOffsetOuter1" in="SourceAlpha" dy="3"/><feGaussianBlur result="shadowBlurOuter1" in="shadowOffsetOuter1" stdDeviation="2.5"/><feComposite result="shadowBlurOuter1" operator="out" in2="SourceAlpha" in="shadowBlurOuter1"/><feColorMatrix in="shadowBlurOuter1" values="0 0 0 0 1 0 0 0 0 1 0 0 0 0 1 0 0 0 0.04 0"/></filter><filter id="f" filterUnits="objectBoundingBox" height="1.364" width="1.364" y="-.121" x="-.182"><feOffset result="shadowOffsetOuter1" in="SourceAlpha" dy="3"/><feGaussianBlur result="shadowBlurOuter1" in="shadowOffsetOuter1" stdDeviation="2.5"/><feColorMatrix in="shadowBlurOuter1" values="0 0 0 0 0 0 0 0 0 0 0 0 0 0 0 0 0 0 0.04 0"/></filter><filter id="g" filterUnits="objectBoundingBox" height="1.271" width="1.26" y="-.135" x="-.13"><feOffset result="shadowOffsetOuter1" in="SourceAlpha"/><feGaussianBlur result="shadowBlurOuter1" in="shadowOffsetOuter1" stdDeviation="1.5"/><feColorMatrix result="shadowMatrixOuter1" in="shadowBlurOuter1" values="0 0 0 0 1 0 0 0 0 1 0 0 0 0 1 0 0 0 0.189985795 0"/><feMerge><feMergeNode in="shadowMatrixOuter1"/><feMergeNode in="SourceGraphic"/></feMerge></filter><circle r="28.897" cy="28.897" cx="28.897" id="a"/><circle r="24.694" cy="28.897" cx="28.897" id="c"/><circle r="24.694" cy="29.141" cx="28.897" id="e"/></defs><g fill-rule="evenodd" fill="none"><g transform="translate(4.786 1.773)"><use height="100%" width="100%" xlink:href="#a" filter="url(#b)" fill="#000"/><use height="100%" width="100%" xlink:href="#a" fill="#e0f6ff"/></g><g transform="translate(4.786 1.773)"><use height="100%" width="100%" xlink:href="#c" filter="url(#d)" fill="#000"/><use height="100%" width="100%" xlink:href="#c" fill="#32c5ff" fill-opacity=".153"/></g><g transform="translate(4.786 1.529)"><use height="100%" width="100%" xlink:href="#e" filter="url(#f)" fill="#000"/><use height="100%" width="100%" xlink:href="#e" fill="#c5eeff"/></g><g transform="translate(9.095 5.247)" filter="url(#g)"><path fill="url(#h)" d="M12.797 39.058a8.6 8.6 0 011.339-1.811c1.236-1.284 2.791-1.968 4.566-2.251.73-.117 1.397-.44 2.14-.407.357.014.767.236 1.124.263 1.328.174 2.595.435 3.709 1.167a8.19 8.19 0 012.491 2.588c.099.164.26.473.355.638.342.434.362.98.547 1.478.107.287.216.576.283.876.019.083.068.167.004.251l-2.441.002c-.131-.65-.312-1.285-.64-1.878-.997-1.804-2.55-2.928-4.657-3.268-2.363-.38-4.37.332-5.972 2.017-.8.843-1.277 1.853-1.484 2.973-.009.05-.004.102-.006.153l-2.441.001a11.75 11.75 0 011.083-2.792z"/><ellipse ry="6.417" rx="6.48" cy="41.269" cx="20.55" fill="#6d7278"/><ellipse ry="5.25" rx="5.302" cy="41.269" cx="20.55" fill="#969696"/><ellipse ry="4.083" rx="4.124" cy="41.269" cx="20.55" opacity=".72" fill="#202327"/><ellipse ry="2.917" rx="2.946" cy="41.269" cx="20.55" opacity=".72" fill="#d7d7d7"/><path opacity=".084" fill="#714b85" d="M39.99 12.686l8.56 6.417c.338 1.225.523 2.074.555 2.547.033.474.099.985.198 1.536h-9.312v-10.5z"/><path fill="url(#i)" d="M43.099 9.188c.421.46.795.897 1.12 1.311.275.35.567.759.877 1.228.058.088-.026.261-.098.261-1.868 0-1.859 1.812-1.859 2.732v5.496c0 1.587.512 2.815 1.917 2.815h4.28c.015.405.023.812.023 1.221 0 8.688-3.238 15.382-8.682 19.936l-10.942-.001c-.977-6.143-4.172-9.215-9.585-9.215-8.12 0-6.938-7.313-6.658-7.313h23.951V12.776c0-2.55 2.044-3.588 3.814-3.588z"/><path opacity=".5" fill="#696e78" d="M3.169 23.971c.894 1.58 1.021 2.95.38 4.106-.412.744-1.487 1.355-3.223 1.83l-.167-1.113 2.19-2.16.48-2.663z"/><path fill="url(#j)" d="M13.012 27.92c.872.638 8.249 6.529 8.897 6.995.03.02.136.098.32.231a4.731 4.731 0 00-.412-.078c-.534-.046-1.066-.1-1.603-.075-1.618.075-3.233.208-4.63 1.09-1.124.71-1.985 1.675-2.648 2.825-.564.976-1.284 3.316-1.371 3.383a14.39 14.39 0 00-.329 1.655c-.021.158-.072.24-.26.24-.52-.003-1.299-.003-2.338-.002-1.866-1.666-3.29-3.254-4.27-4.765-1.138-1.752-1.99-3.313-2.553-4.567-.67-1.495-.938-2.532-.938-2.622.07-.052 9.01-3.313 9.966-3.661.345-.126.57-.208.87-.321.38-.143.707-.245 1.08-.396a.328.328 0 01.22.067z"/><path fill="#202327" d="M26.099 27.155c-.27-.75-.535-1.503-.81-2.25-.39-1.064-.79-2.124-1.184-3.186-.83-2.239-1.66-4.476-2.487-6.714-.637-1.718-1.271-3.437-1.908-5.155-.4-1.083-.804-2.166-1.207-3.248-.026-.07-.042-.15-.127-.181-.255-.61-.49-1.226-.674-1.86-.018-.065-.038-.133.01-.196-.198-.889-.31-1.779-.012-2.666C18.044.678 18.821.177 19.88.03c1.12-.16 1.93.361 2.615 1.144.787.902 1.246 1.988 1.77 3.037.407.81.83 1.613 1.252 2.418.28.532.572 1.06.856 1.59.886 1.657 1.766 3.314 2.654 4.97.844 1.573 1.692 3.146 2.54 4.718.653 1.208 1.304 2.417 1.957 3.627.799 1.476 1.599 2.953 2.395 4.43.215.396.428.792.641 1.189-.048.06-.12.072-.19.072-.63.003-1.263.026-1.894-.012-.114-.027-.155-.12-.199-.21-.427-.861-.859-1.722-1.29-2.581-.584-1.161-1.168-2.32-1.749-3.482-.575-1.154-1.16-2.305-1.733-3.462-.131-.267-.259-.536-.396-.8-.873-1.682-1.702-3.385-2.556-5.077a638.778 638.778 0 01-2.542-5.081c-.479-.974-1.001-1.926-1.454-2.91a.689.689 0 00-.182-.263c-.04-.07-.033-.146-.036-.222a1.766 1.766 0 00-1.78-1.702c-.974.01-1.685.694-1.801 1.516-.091.628.113 1.15.59 1.572.053.048.11.089.125.161.015.202.118.377.195.559.514 1.198.94 2.43 1.398 3.648.585 1.546 1.15 3.1 1.729 4.648.522 1.4 1.036 2.802 1.557 4.202.613 1.649 1.22 3.3 1.831 4.951.512 1.385 1.032 2.77 1.536 4.159.043.116.146.255-.027.364-.475.057-.951.022-1.427.02-.062 0-.124-.016-.166-.069"/><path fill="#202327" d="M18.404 6.159c.032.086.084.168.046.266-2.908 3.41-5.816 6.818-8.723 10.229-1.965 2.303-3.93 4.605-5.888 6.913-.188.221-.386.413-.661.521-.399.19-.97-.034-1.102-.43-.217-.475-.092-.867.25-1.258 1.177-1.353 2.33-2.724 3.493-4.089l4.456-5.223a6392.19 6392.19 0 003.964-4.649c1.159-1.357 2.315-2.716 3.473-4.074.014-.017.038-.028.056-.041.155.63.407 1.23.636 1.835z"/><path fill="url(#k)" d="M33.542 44.175c-1.665.002-2.759.005-3.28.01-.136.001-.315-.002-.537-.009a51.023 51.023 0 00-.386-1.903c-.11-.404-.35-1.075-.721-2.014z"/><path fill="#5f6875" d="M2.524 22.179c.248.342.932.27.942 1.134.005.43-.19.707-.403.953.011.06.027.12.047.18.092.386.256.754.317 1.15.133.879-.071 1.661-.639 2.36-.38.467-1.25.817-2.61 1.05-.043-.36-.075-.63-.094-.81a15.65 15.65 0 01-.045-.495l.71-.095c.263-.158.552-.324.736-.417.179-.09.252-.204.167-.395.229-.37.266-.775.233-1.195-.028-.359-.142-.7-.23-1.045-.156-.613 0-1.175.336-1.698a5.12 5.12 0 01.533-.677z"/><path stroke-linejoin="round" stroke-linecap="round" stroke-width=".5" stroke="#555" d="M49.105 23.186h-4.028c-.738 0-1.274-.287-1.608-.861-.335-.574-.508-1.354-.52-2.34L42.99 14c-.007-.665.166-1.206.52-1.624.353-.417.827-.638 1.423-.662"/><path fill="#202327" stroke-width=".851" stroke="#979797" d="M21.565 40.102c0 .043.018.082.046.11.03.03.072.048.118.048a.166.166 0 00.117-.048.155.155 0 000-.22c-.043-.043-.136.004-.281.11zm0 2.333c0 .043.018.082.046.11.03.03.072.048.118.048a.166.166 0 00.117-.048.155.155 0 000-.22c-.043-.043-.136.004-.281.11zm-2.356 0c0 .043.017.082.046.11a.166.166 0 00.234 0 .155.155 0 000-.22c-.043-.043-.135.004-.28.11zm0-2.333c0 .043.017.082.046.11a.166.166 0 00.234 0 .155.155 0 000-.22c-.043-.043-.135.004-.28.11z"/><path opacity=".697" fill="url(#l)" d="M27.657 26.686c-.141-.43-.366-.92-.523-1.34-.308-.826-.567-1.633-.886-2.456-.654-1.696-1.24-3.465-1.896-5.16-.713-1.843-1.329-3.617-2.04-5.46-.417-1.074-.765-2.164-1.188-3.235-.509-1.296-.918-2.654-1.498-3.925-.028-.062-.219-.238-.124-.306.107-.033.25.134.336.17 1.139.493 2.074.058 2.411-1.073.022-.076.025-.375.103-.43.148-.055.217.171.246.225.62 1.174 2.685 5.44 3.152 6.334.56 1.067 1.136 2.285 1.696 3.353.649 1.234 1.167 2.333 1.812 3.568.593 1.135 1.093 2.192 1.685 3.328.97 1.856 1.81 3.7 2.776 5.557.138.265.306.61.436.877.024.05-1.46.005-3.212 0-1.65-.004-3.265.034-3.286-.027z"/><path fill="url(#m)" d="M35.107 26.716c.79.002 1.58.005 2.368.009 0 .346.002.746 0 1.092-.001.738-.39 1.2-1.019 1.2-2.965.002-5.932.002-8.897.002H13.113c-.372 0-.372 0-.373-.451 0-.074-.003-.148-.007-.223.023-.213 0-.481.036-.695.086-.52.436-.894.884-.923.08-.006.158-.004.238-.004H24.2c.102 0 .205-.004.308-.005l10.6-.002z"/><path fill="#5f6875" d="M1.905 25.961c.042.38-.102.718-.432 1.018-.33.3-.82.415-1.473.345l.084.872 1.137-.087 1.505-1.368-.129-1.4-.441-.546-.25 1.166z"/><path opacity=".651" fill="#fff" stroke-width=".851" stroke="#979797" d="M2.713 23.208c0 .043.018.082.047.11.03.03.071.047.117.047a.166.166 0 00.117-.047.155.155 0 000-.22c-.043-.043-.135.003-.28.11z"/><path fill="#969696" d="M46.366 37.187H32.922c-.388.054-.581.25-.581.586 0 .336.193.529.58.578h12.793a32.617 32.617 0 00.652-1.163z"/><path fill="url(#n)" d="M32.34 37.773c-.009.14.03.266.117.375.087.109.242.176.465.203h12.792l.357-.624-13.73.046z"/><path fill="#969696" d="M44.95 39.52H31.743c-.387.054-.58.25-.58.586 0 .336.193.529.58.578h12.353a29.76 29.76 0 00.854-1.163z"/><path fill="url(#o)" d="M31.162 40.106c0 .12.051.247.152.379.1.132.243.199.43.199h12.352l.482-.644z"/><path fill="#969696" d="M43.112 41.853H34.1c-.388.055-.581.25-.581.586 0 .337.193.53.58.578h7.868c.17-.156.332-.312.487-.47.155-.157.374-.388.658-.694z"/><path fill="url(#p)" d="M33.519 42.44c.004.184.059.32.164.404a.895.895 0 00.417.173h7.867l.601-.578h-9.05z"/><path fill="#969696" d="M.951 32.52h12.425c.387.054.58.25.58.586 0 .337-.193.53-.58.578H1.33a13.851 13.851 0 01-.193-.578c-.07-.223-.132-.418-.187-.586zm.864 2.333H11.96c.387.054.58.25.58.586 0 .337-.193.53-.58.578H2.375zm1.211 2.334h7.096c.387.054.58.249.58.585 0 .337-.193.53-.58.578H3.708z"/><path fill="url(#q)" d="M49.325 25.787c-.727-.179-1.285-.268-1.676-.268-2.928 0-5.302 2.35-5.302 5.25 0 1.178.43 2.765 1.778 3.904.32.27.694.569 1.472.938.316.15.774.272 1.373.365.336-.723.656-1.54.96-2.45a33.63 33.63 0 00.864-3.202c.156-.755.32-1.927.465-3.549.018-.205.04-.535.066-.988z"/><path fill-rule="nonzero" fill="#d7d7d7" d="M45.665 29.26c-.098.1-.283.026-.384-.05-.21-.061-.367.117-.342.314.023.186.158.175-.008.342l-.406.408c-.124.126-.259.058-.383-.066l-.45-.451c-.124-.125-.237-.214-.112-.339l.472-.476c.133-.134.209.01.349-.002.157-.001.313-.197.268-.347a.352.352 0 01-.035-.064c-.03-.076.023-.196.095-.268l.639-.63c.79-.795 1.64-.527 1.941-.423 0 .121.023.159-.301.123-.324-.037-1.31.484-.835.958.03.03.266.19-.068.528l-.44.444z"/><path opacity=".514" fill-rule="nonzero" fill="#969697" d="M45.665 29.26c-.098.1-.283.026-.384-.05-.21-.061-.367.117-.342.314.023.186.158.175-.008.342l-.406.408c-.124.126-.259.058-.383-.066l-.257-.261 2.792-2.867c.138.005.239.014.304.026.128.025.27.082.328.102 0 .121.023.159-.301.123-.324-.037-1.31.484-.835.958.03.03.266.19-.068.528l-.44.444z"/><path fill-rule="nonzero" fill="#4c4c4c" d="M46.315 28.867s.443.411 1.296 1.226c-.222.205-.463.418-.682.609l-1.186-1.267z"/><path fill-rule="nonzero" fill="#c8c8c8" d="M48.6 31.203c-1.48 1.633-2.275 2.504-2.385 2.613-.219.217-.373.244-.557.243a.776.776 0 01-.514-.238l-.003-.003-.003-.004c-.138-.136-.24-.326-.24-.51 0-.182.05-.367.241-.556.19-.189 3.257-2.944 3.257-2.944s.307-.307.204-.578c-.203-.536-.025-1.005.404-1.43a2.39 2.39 0 00.177-.202 28.99 28.99 0 01-.12 1.116c-.035.282-.106.662-.18 1.132-.04.259-.133.713-.281 1.361z"/><path opacity=".5" fill-rule="nonzero" fill="#969697" d="M45.144 33.814l-.006-.006c-.138-.137-.24-.327-.24-.51s.05-.367.241-.556c.19-.19 3.257-2.944 3.257-2.944s.307-.308.204-.58c-.203-.535-.025-1.003.404-1.43.052-.05.11-.115.177-.194-.04.45-.08.822-.12 1.116-.042.295-.118.758-.23 1.389-2.393 2.541-3.622 3.78-3.687 3.715z"/><path fill="#546875" d="M19.367 4.961c-.037-.021-.076-.041-.112-.06a2.186 2.186 0 01-.797-1.158c-.322-1.127.516-2.374 1.683-2.533a2.065 2.065 0 012.341 1.598c.044.204.01.407.03.611-.168 1.526-1.815 2.335-3.145 1.542z"/><path opacity=".477" fill="#fff" d="M20.418 4.365c-.63-.004-1.201-.537-1.169-1.145.038-.773.539-1.161 1.202-1.188.65-.028 1.155.525 1.153 1.19-.002.66-.51 1.146-1.186 1.143z"/></g></g></svg>