<svg viewbox="0 0 250 37" width="250" height="37" xmlns="http://www.w3.org/2000/svg"><g fill-rule="nonzero" fill="none"><path fill="#FFF" d="M178.535 1.174h32.711V35.67h-32.711z"/><path fill="#EA1C2D" d="M222.811 32.264l.641-3.343L215 22.63l1.694-2.317L215 14.947l5.449.513 1.42-2.638 5.265 4.964-1.896-10.998 3.498 2.078 3.58-7.042 3.636 6.997 3.618-2.015-1.85 10.989 5.183-5.01 1.667 2.867 5.384-.705-1.969 5.412 1.97 2.271-8.829 6.401 1.035 3.343-8.48-1.044-.009 3.974h-2.29l-.018-3.974z"/><path fill="#231F20" d="M35.824.817h33.919v35.43H35.824zM71.319.817h33.919v35.43H71.319zM106.813.817h33.91v35.43h-33.91zM142.308.817h33.919v35.43h-33.919zM.33.817h33.91v35.43H.33z"/><path d="M18.05 30.982c-7.061 0-10.779-5.156-10.779-12.226 0-7.582 4.46-12.16 10.815-12.16 5.815 0 8.114 2.5 9.744 6.959l-5.962 2.344c-.842-2.207-1.657-3.599-3.819-3.599-2.747 0-3.928 2.748-3.928 6.502 0 3.755 1.154 6.511 4.002 6.511 2.06 0 2.94-1.117 4.221-3.351l5.55 2.948c-1.594 3.059-4.231 6.072-9.845 6.072zM54.707 21.092h-3.929l.44-1.557c.852-3.004 1.218-4.323 1.53-5.916.301 1.593.668 2.876 1.52 5.916l.439 1.557zm9.972 9.377L56.09 6.797h-6.638L40.87 30.469h7.033l1.282-4.194h7.106l1.282 4.194h7.106zM91.84 14.663c0 1.694-.842 2.637-2.976 2.637H85v-5.21h3.965c2.06 0 2.876 1.08 2.876 2.573zm7.006 15.788l-4.734-9.039c2.6-1.181 4.258-3.37 4.258-6.923 0-5.614-3.663-7.71-9.24-7.71H78.544V30.45h6.41v-7.995h2.647l3.855 7.995h7.39zM121.035 12.346v3.306h7.408v5.495h-7.408v9.304h-6.566V6.778h18.745v5.568zM161.236 21.064h-3.92l.44-1.548c.843-3.012 1.21-4.331 1.52-5.915.303 1.584.678 2.866 1.52 5.915l.44 1.548zm10.01 9.34l-8.6-23.671h-6.63l-8.58 23.672h7.042l1.282-4.185h7.097l1.255 4.185h7.133z" fill="#FFF"/><path fill="#ED1C24" d="M183.031.817h1.566v1.566h-1.566z"/><path d="M177.802.817v35.44h33.883V.816h-33.883zm32.363 1.557V34.69h-4.817l-6.63-9.496 8.178-11.502h-8.178l-1.447 2.28c-.916 1.484-1.923 3.068-2.518 4.314a41.209 41.209 0 00-2.473-4.313l-1.447-2.28H182.5l8.187 11.639-6.758 9.358h-4.58V2.374h30.816zM197.198 34.69h-5.23l.12-.174a43.095 43.095 0 002.665-4.34 48.425 48.425 0 002.335 4.34l.11.174z" fill="#231F20"/></g></svg>