<svg width="24" height="24" viewBox="0 0 24 24" fill="none" xmlns="http://www.w3.org/2000/svg">
<path fill-rule="evenodd" clip-rule="evenodd" d="M10.8413 5.80305C11.1638 6.12435 11.5506 6.285 12.0018 6.285C12.453 6.285 12.8393 6.12375 13.1606 5.80125C13.4819 5.47875 13.6425 5.0919 13.6425 4.6407C13.6425 4.18951 13.4813 3.80326 13.1588 3.48195C12.8363 3.16065 12.4494 3 11.9982 3C11.547 3 11.1608 3.16125 10.8395 3.48375C10.5182 3.80625 10.3575 4.1931 10.3575 4.6443C10.3575 5.09548 10.5188 5.48173 10.8413 5.80305ZM9.59253 9.0075V21H10.9425V15.15H13.0575V21H14.4075V9.01029C15.4275 8.93343 16.4138 8.8275 17.3663 8.6925C18.3188 8.5575 19.23 8.385 20.1 8.175L19.7625 6.825C18.4875 7.125 17.22 7.33875 15.96 7.46625C14.7 7.59375 13.38 7.6575 12 7.6575C10.62 7.6575 9.30002 7.59375 8.04002 7.46625C6.78002 7.33875 5.51252 7.125 4.23752 6.825L3.90002 8.175C4.77002 8.385 5.68127 8.5575 6.63377 8.6925C7.58627 8.8275 8.57253 8.9325 9.59253 9.0075Z" fill="#403F4C"/>
</svg>
