<svg xmlns="http://www.w3.org/2000/svg" xmlns:xlink="http://www.w3.org/1999/xlink" height="67.314" width="67.314"  viewbox="0 0 67.314 67.314"><defs><filter id="b" filterUnits="objectBoundingBox" height="1.312" width="1.312" y="-.104" x="-.156"><feOffset result="shadowOffsetOuter1" in="SourceAlpha" dy="3"/><feGaussianBlur result="shadowBlurOuter1" in="shadowOffsetOuter1" stdDeviation="2.5"/><feComposite result="shadowBlurOuter1" operator="out" in2="SourceAlpha" in="shadowBlurOuter1"/><feColorMatrix in="shadowBlurOuter1" values="0 0 0 0 0 0 0 0 0 0 0 0 0 0 0 0 0 0 0.03 0"/></filter><filter id="d" filterUnits="objectBoundingBox" height="1.365" width="1.365" y="-.122" x="-.183"><feOffset result="shadowOffsetOuter1" in="SourceAlpha" dy="3"/><feGaussianBlur result="shadowBlurOuter1" in="shadowOffsetOuter1" stdDeviation="2.5"/><feComposite result="shadowBlurOuter1" operator="out" in2="SourceAlpha" in="shadowBlurOuter1"/><feColorMatrix in="shadowBlurOuter1" values="0 0 0 0 0 0 0 0 0 0 0 0 0 0 0 0 0 0 0.04 0"/></filter><filter id="e" filterUnits="objectBoundingBox" height="1.28" width="1.306" y="-.13" x="-.153"><feOffset result="shadowOffsetOuter1" in="SourceAlpha" dy="1"/><feGaussianBlur result="shadowBlurOuter1" in="shadowOffsetOuter1" stdDeviation="1"/><feColorMatrix result="shadowMatrixOuter1" in="shadowBlurOuter1" values="0 0 0 0 0 0 0 0 0 0 0 0 0 0 0 0 0 0 0.08 0"/><feMerge><feMergeNode in="shadowMatrixOuter1"/><feMergeNode in="SourceGraphic"/></feMerge></filter><linearGradient gradientUnits="userSpaceOnUse" id="h" y2="68.012" x2="53.453" y1="9.673" x1="26.207"><stop offset="0%" stop-color="#B6E0F9"/><stop offset="100%" stop-color="#8FCAF3"/></linearGradient><linearGradient gradientUnits="userSpaceOnUse" id="i" y2="44.609" x2="38.251" y1="24.364" x1="31.079"><stop offset="0%" stop-color="#B7EBE5"/><stop offset="100%" stop-color="#20B09B"/></linearGradient><circle r="28.854" cy="28.854" cx="28.854" id="a"/><circle r="24.657" cy="28.854" cx="28.854" id="c"/><path d="M.449.199h4.936v5.103H.449z" id="f"/></defs><g fill-rule="evenodd" fill="none"><g transform="translate(-1.986 -5.495)"><g transform="translate(6.813 7.314)"><use height="100%" width="100%" xlink:href="#a" filter="url(#b)" fill="#000"/><use height="100%" width="100%" xlink:href="#a" fill="#32c5ff" fill-opacity=".153"/></g><g transform="translate(6.813 7.314)"><use height="100%" width="100%" xlink:href="#c" filter="url(#d)" fill="#000"/><use height="100%" width="100%" xlink:href="#c" fill="#32c5ff" fill-opacity=".153"/></g><g transform="rotate(-44 42.605 16.567)" filter="url(#e)"><path stroke-linecap="round" stroke-width=".973" stroke="#29bb9a" d="M.672 19.973A24.187 24.187 0 00.327 29.6c2.18 13.222 14.665 22.172 27.887 19.991 13.222-2.18 22.172-14.666 19.992-27.887C46.025 8.485 33.54-.467 20.318 1.714a24.289 24.289 0 00-5.966 1.788"/><g transform="translate(12.48)"><mask fill="#fff" id="g"><use height="100%" width="100%" xlink:href="#f"/></mask><path d="M3.356.199L2.248 3.334l3.137 1.107-1.802.86L.45 4.196 1.555 1.06z" mask="url(#g)" fill="#29bb9a"/></g></g><circle r="21.035" cy="35.87" cx="35.595" fill="url(#h)"/><path opacity=".215" fill="#4c6fc1" d="M27.105 18.557l9.92 36.754c-.335.017-.673.026-1.012.026-10.751 0-19.466-8.716-19.466-19.467 0-7.54 4.287-14.08 10.558-17.313z"/><path opacity=".03" fill="#262626" d="M39.885 17.315a21.039 21.039 0 017.047 2.746c-.26.482.363 1.06 1.869 1.735l3.901 5.783 1.976 5.782-.285 5.82L53.026 43c.052-.224.1-.45.145-.678 1.92-9.876-4.353-19.405-14.01-21.282-9.657-1.877-19.042 4.608-20.962 14.484a18.611 18.611 0 00-.279 5.141l-.824-3.157.115-4.441.769-3.957.974-2.797 1.723-2.157 2.3-2.884c4.696-3.54 10.757-5.153 16.908-3.957z"/><path fill="url(#i)" d="M35.595 45.366a8.805 8.805 0 100-17.61 8.805 8.805 0 000 17.61z"/><path fill="#3d3939" d="M35.595 42.442a5.87 5.87 0 100-11.74 5.87 5.87 0 000 11.74z"/><path opacity=".026" fill="#202327" d="M35.61 41.71c5.81 0 11.038 2.56 14.67 6.638-3.596 4.062-8.669 6.635-14.67 6.635-6.047 0-11.023-2.538-14.682-6.62 3.632-4.088 8.865-6.653 14.681-6.653z"/></g><path d="M14.561 31.262h4.623m28.591 0h4.623M33.54 16.176v-4.623m0 37.716v-4.623" stroke-linecap="round" stroke-width=".73" stroke="#fff"/><path stroke-width=".73" stroke="#26b4a0" d="M33.61 11.221a19.142 19.142 0 00-13.579 5.624 19.142 19.142 0 00-5.624 13.578c0 5.303 2.15 10.103 5.624 13.578a19.142 19.142 0 0013.578 5.624 19.14 19.14 0 0013.578-5.624 19.142 19.142 0 005.625-13.578c0-5.302-2.15-10.103-5.625-13.578a19.142 19.142 0 00-13.578-5.624z"/><path d="M36.13 29.765l-2.614-14.927-2.089 15.067z" fill="#51c3b3"/><path d="M34.684 33.403l14.245-5.167-15.2.56z" fill="#51c3b3"/><path fill="#00816c" stroke-width=".514" stroke="#00816c" d="M33.61 28.364c-.74 0-1.41.3-1.894.784a2.67 2.67 0 00-.785 1.894c0 .74.3 1.41.785 1.893a2.67 2.67 0 001.893.785c.74 0 1.41-.3 1.894-.785a2.67 2.67 0 00.784-1.893c0-.74-.3-1.41-.784-1.894a2.67 2.67 0 00-1.894-.784z"/><path opacity=".717" fill="#76ecdb" d="M33.61 32.992a1.957 1.957 0 100-3.914 1.957 1.957 0 000 3.914z"/></g></svg>