<svg width="352" height="221" xmlns="http://www.w3.org/2000/svg" xmlns:xlink="http://www.w3.org/1999/xlink"><defs><path d="M28.885 1.506.645 29.416C-.721 30.769.228 33.1 2.148 33.113l60.462.36c1.921.013 2.898-2.31 1.548-3.677L36.251 1.55A5.189 5.189 0 0 0 32.547 0a5.19 5.19 0 0 0-3.662 1.506Z" id="a"/><path d="M28.885 1.506.645 29.416C-.721 30.769.228 33.1 2.148 33.113l60.462.36c1.921.013 2.898-2.31 1.548-3.677L36.251 1.55A5.189 5.189 0 0 0 32.547 0a5.19 5.19 0 0 0-3.662 1.506Z" id="c"/><path d="M24.692 1.505.645 25.272c-1.366 1.35-.419 3.683 1.506 3.696l52.12.31c1.922.012 2.9-2.31 1.55-3.678L32.057 1.55A5.19 5.19 0 0 0 28.353 0c-1.323 0-2.646.5-3.66 1.505Z" id="e"/><path d="M24.692 1.505.645 25.272c-1.366 1.35-.419 3.683 1.506 3.696l52.12.31c1.922.012 2.9-2.31 1.55-3.678L32.057 1.55A5.19 5.19 0 0 0 28.353 0a5.192 5.192 0 0 0-3.66 1.505Z" id="g"/><path d="M17.852 1.54.646 18.512c-1.369 1.351-.42 3.683 1.502 3.694l36.493.218c1.922.012 2.898-2.31 1.55-3.676L23.125 1.7C21.954.546 21.144 0 20.37 0c-.766 0-1.5.533-2.517 1.54Z" id="i"/><path d="M17.852 1.54.646 18.512c-1.369 1.351-.42 3.683 1.502 3.694l36.493.218c1.922.012 2.898-2.31 1.55-3.676L23.125 1.7C21.954.546 21.145 0 20.37 0c-.766 0-1.5.533-2.517 1.54Z" id="k"/></defs><g fill="none" fill-rule="evenodd"><path d="M27.233 217.885C10.585 217.712-1.795 183.44.214 149.503c4.038-68.18 20.319-94.485 58.921-106.967 33.43-10.81 56.092 14.834 99.928 9.634 43.836-5.201 28.701-76.334 124.857-43.585 41.076 13.99 61.894 68.356 43.444 153.841C321.936 187.578 316.638 221 283.548 221l-256.315-3.115Z" fill="#F5FAFF"/><path fill="#E7F3FE" d="M49.122 215.519h10.013v-34.432H49.122z"/><path d="M23.67 199.005c-1.92-.012-2.87-2.344-1.502-3.696l28.24-27.91a5.205 5.205 0 0 1 7.367.043l27.905 28.245c1.35 1.368.373 3.69-1.548 3.678l-60.461-.36Z" fill="#E7F3FE"/><g transform="translate(21.523 165.893)"><mask id="b" fill="#fff"><use xlink:href="#a"/></mask><path fill="#E7F3FE" mask="url(#b)" d="M-331.682 71.341H141.44v-231.629h-473.122z"/></g><g transform="translate(21.523 165.893)"><mask id="d" fill="#fff"><use xlink:href="#c"/></mask><path fill="#E7F3FE" mask="url(#d)" d="M-6.258 39.733h77.3V-6.26h-77.3z"/></g><path d="M27.97 177.227c-1.923-.012-2.87-2.346-1.505-3.696l24.047-23.767a5.206 5.206 0 0 1 7.367.044l23.762 24.05c1.351 1.369.373 3.69-1.549 3.679l-52.121-.31Z" fill="#E7F3FE"/><g transform="translate(25.82 148.259)"><mask id="f" fill="#fff"><use xlink:href="#e"/></mask><path fill="#E7F3FE" mask="url(#f)" d="M-335.979 88.975h473.122v-231.629h-473.122z"/></g><g transform="translate(25.82 148.259)"><mask id="h" fill="#fff"><use xlink:href="#g"/></mask><path fill="#E7F3FE" mask="url(#h)" d="M-6.258 35.538h68.964V-6.26H-6.258z"/></g><path d="M35.91 156.163c-1.922-.011-2.87-2.343-1.501-3.693l17.205-16.975c2.048-2.025 2.943-2.133 5.274.161l17.064 17.049c1.349 1.366.374 3.687-1.55 3.677l-36.492-.219Z" fill="#E7F3FE"/><g transform="translate(33.762 133.956)"><mask id="j" fill="#fff"><use xlink:href="#i"/></mask><path fill="#E7F3FE" mask="url(#j)" d="M-343.92 103.278h473.121v-231.629H-343.92z"/></g><g transform="translate(33.762 133.956)"><mask id="l" fill="#fff"><use xlink:href="#k"/></mask><path fill="#E7F3FE" mask="url(#l)" d="M-6.258 28.686h53.333V-6.26H-6.258z"/></g><g><path d="M313.48 216.342c-5.653-4.043-1.815-19.099 8.571-33.628s27.12-20.257 29.04-18.986c1.618 1.07 1.815 19.098-8.571 33.627-10.387 14.53-23.388 23.03-29.04 18.987" fill="#E7F3FE"/><path d="M304.978 216.915c6.939.363 13.138-10.295 13.845-23.807.707-13.512-9.494-25.065-12.565-25.065-3.236 0-11.857 10.238-12.565 23.749-.706 13.512 4.346 24.76 11.285 25.123" fill="#E7F3FE"/><path stroke="#FFF" stroke-width="1.302" stroke-linecap="round" stroke-linejoin="round" d="M306.258 180.33v28.148l-6.473-10.167M317.285 210.227l26.726-35.49M332.936 189.445l8.252-1.434"/><path d="M287.025 216.637H76.811c-6.153 0-11.142-4.99-11.142-11.146V91.105c0-6.156 4.989-11.146 11.142-11.146h210.214c6.154 0 11.143 4.99 11.143 11.146V205.49c0 6.156-4.99 11.146-11.143 11.146" fill="#C5CBD6"/><path fill="#FFF" d="M76.318 196.202H287.83V90.43H76.32z"/><path d="M216.26 143.316c0 18.973-15.375 34.353-34.342 34.353s-34.342-15.38-34.342-34.353 15.375-34.353 34.342-34.353 34.342 15.38 34.342 34.353" fill="#7CE08A"/><path d="M195.413 147.763v5.93a2.965 2.965 0 0 1-2.965 2.966H171.7a2.964 2.964 0 0 1-2.963-2.966v-5.93" stroke="#FFF" stroke-width="1.954"/><path stroke="#FFF" stroke-width="1.954" d="m174.663 140.35 7.411 7.414 7.41-7.413M182.074 147.764v-17.791"/><path stroke="#95A7BE" stroke-width="3.256" stroke-linecap="round" d="M2.571 218.306h297.877M308.08 218.306h14.692"/><path d="M29.024 216.637H6.42c0-4.98 5.057-9.011 11.302-9.011 6.245 0 11.302 4.031 11.302 9.011" fill="#E7F3FE"/><path d="M287.025 216.637H31.101c-6.154 0-11.143-4.99-11.143-11.146h278.21c0 6.156-4.99 11.146-11.143 11.146" fill="#40464E"/><path fill="#F5FAFF" d="M76.318 99.983H287.83V90.43H76.32z"/><path d="M269.673 95.206a2.725 2.725 0 1 1-5.45.002 2.725 2.725 0 0 1 5.45-.002M276.38 95.206a2.725 2.725 0 1 1-5.452.002 2.725 2.725 0 0 1 5.451-.002M283.358 95.206a2.725 2.725 0 1 1-5.451.002 2.725 2.725 0 0 1 5.45-.002" fill="#C5CBD6"/></g></g></svg>