<svg width="65" height="41" viewBox="0 0 65 41" fill="none" xmlns="http://www.w3.org/2000/svg">
<path d="M0 4C0 1.79841 1.92035 0.0136718 4.13321 0.0136718L60.9933 0C63.2061 0 65 1.78474 65 3.98633V20.4299V36.8735C65 39.0751 63.2061 40.8599 60.9933 40.8599L4.00676 41C1.79389 41 1.52588e-05 39.2153 1.52588e-05 37.0137L0 4Z" fill="#008738"/>
<path d="M53.0152 29.8709V26.363H53.9568L54.8984 29.0637L55.87 26.363H56.7816V29.8709H56.1405V27.8379C56.1405 27.7848 56.1438 27.6818 56.1505 27.529C56.1572 27.3695 56.1639 27.2499 56.1706 27.1702H56.1305L55.1188 29.8709H54.5879L53.6263 27.1702H53.5862C53.5929 27.2765 53.5996 27.3961 53.6062 27.529C53.6129 27.6618 53.6163 27.7482 53.6163 27.7881V29.8709H53.0152ZM50.9418 29.8709V26.9011H49.9301V26.363H52.5945V26.9011H51.5728V29.8709H50.9418Z" fill="white"/>
<path d="M16.1342 28.746C16.1342 29.631 15.9899 30.4043 15.7014 31.0661C15.413 31.7198 14.9642 32.2301 14.3552 32.5968C13.7542 32.9636 12.9728 33.1469 12.0112 33.1469C11.0656 33.1469 10.2883 32.9636 9.6793 32.5968C9.07028 32.2301 8.61752 31.7158 8.32102 31.0541C8.03253 30.3924 7.88829 29.619 7.88829 28.7341C7.88829 27.8491 8.03253 27.0797 8.32102 26.426C8.61752 25.7722 9.07028 25.266 9.6793 24.9072C10.2883 24.5404 11.0696 24.3571 12.0232 24.3571C12.9769 24.3571 13.7542 24.5404 14.3552 24.9072C14.9642 25.266 15.413 25.7762 15.7014 26.4379C15.9899 27.0917 16.1342 27.8611 16.1342 28.746ZM10.0399 28.746C10.0399 29.5831 10.1922 30.2409 10.4967 30.7192C10.8092 31.1976 11.3141 31.4368 12.0112 31.4368C12.7164 31.4368 13.2213 31.1976 13.5258 30.7192C13.8303 30.2409 13.9825 29.5831 13.9825 28.746C13.9825 27.9089 13.8303 27.2511 13.5258 26.7728C13.2293 26.2865 12.7284 26.0433 12.0232 26.0433C11.3181 26.0433 10.8092 26.2865 10.4967 26.7728C10.1922 27.2511 10.0399 27.9089 10.0399 28.746Z" fill="white"/>
<path d="M23.2129 33.0273L22.6239 30.4562C22.5918 30.3126 22.5477 30.1293 22.4916 29.906C22.4436 29.6748 22.3915 29.4317 22.3354 29.1765C22.2873 28.9214 22.2392 28.6902 22.1911 28.4829C22.1511 28.2677 22.119 28.1082 22.095 28.0046H22.0469C22.0309 28.1082 21.9988 28.2677 21.9507 28.4829C21.9107 28.6982 21.8626 28.9334 21.8065 29.1885C21.7504 29.4436 21.6943 29.6908 21.6382 29.93C21.5901 30.1612 21.5501 30.3565 21.518 30.5159L20.917 33.0273H18.7654L16.9263 26.4619H18.9216L19.5827 29.1885C19.6308 29.3878 19.6749 29.623 19.715 29.8941C19.7631 30.1572 19.8031 30.4203 19.8352 30.6834C19.8752 30.9385 19.9033 31.1577 19.9193 31.3411H19.9554C19.9634 31.2056 19.9794 31.0421 20.0035 30.8508C20.0355 30.6515 20.0676 30.4522 20.0996 30.2528C20.1397 30.0456 20.1757 29.8622 20.2078 29.7027C20.2399 29.5433 20.2599 29.4357 20.2679 29.3798L20.9891 26.4619H23.2249L23.898 29.3918C23.922 29.5194 23.9581 29.7067 24.0062 29.9539C24.0543 30.1931 24.0983 30.4402 24.1384 30.6953C24.1785 30.9505 24.2025 31.1657 24.2105 31.3411H24.2466C24.2626 31.1737 24.2867 30.9584 24.3187 30.6953C24.3588 30.4243 24.4029 30.1532 24.4509 29.8821C24.499 29.6031 24.5471 29.3719 24.5952 29.1885L25.2803 26.4619H27.2517L25.3885 33.0273H23.2129Z" fill="white"/>
<path d="M32.1783 26.3423C32.8754 26.3423 33.4364 26.5336 33.8611 26.9163C34.2938 27.291 34.5102 27.9009 34.5102 28.746V33.0273H32.4908V29.3081C32.4908 28.8536 32.4147 28.5108 32.2624 28.2796C32.1101 28.0484 31.8697 27.9328 31.5412 27.9328C31.0443 27.9328 30.7078 28.1162 30.5315 28.4829C30.3632 28.8417 30.2791 29.3599 30.2791 30.0376V33.0273H28.2476V26.4619H29.7862L30.0627 27.3109H30.1589C30.3672 26.992 30.6437 26.7529 30.9883 26.5934C31.3408 26.426 31.7375 26.3423 32.1783 26.3423Z" fill="white"/>
<path d="M39.0669 26.3423C39.9964 26.3423 40.7337 26.5974 41.2786 27.1076C41.8235 27.6099 42.096 28.3514 42.096 29.332V30.2648H37.925C37.941 30.6953 38.0812 31.0382 38.3457 31.2933C38.6101 31.5484 38.9867 31.676 39.4756 31.676C39.9003 31.676 40.2849 31.6361 40.6295 31.5564C40.9741 31.4767 41.3307 31.3491 41.6993 31.1737V32.6686C41.3788 32.836 41.0342 32.9556 40.6656 33.0273C40.2969 33.1071 39.8442 33.1469 39.3073 33.1469C38.6422 33.1469 38.0492 33.0273 37.5283 32.7882C37.0154 32.549 36.6107 32.1822 36.3142 31.6879C36.0258 31.1936 35.8815 30.5598 35.8815 29.7864C35.8815 28.6224 36.174 27.7574 36.759 27.1913C37.344 26.6253 38.1133 26.3423 39.0669 26.3423ZM39.1029 27.7415C38.7904 27.7415 38.53 27.8411 38.3216 28.0404C38.1213 28.2398 38.0011 28.5467 37.961 28.9613H40.2328C40.2248 28.6105 40.1247 28.3195 39.9323 28.0883C39.748 27.8571 39.4716 27.7415 39.1029 27.7415Z" fill="white"/>
<path d="M47.2952 26.3423C47.3994 26.3423 47.5156 26.3502 47.6438 26.3662C47.772 26.3742 47.8722 26.3861 47.9443 26.4021L47.776 28.2916C47.6157 28.2517 47.3994 28.2318 47.1269 28.2318C46.8705 28.2318 46.614 28.2756 46.3576 28.3633C46.1092 28.4431 45.9008 28.5906 45.7326 28.8058C45.5723 29.0211 45.4922 29.332 45.4922 29.7386V33.0273H43.4607V26.4619H44.9873L45.2998 27.5382H45.384C45.5763 27.2113 45.8367 26.9322 46.1653 26.701C46.5019 26.4619 46.8785 26.3423 47.2952 26.3423Z" fill="white"/>
<path d="M16.1342 12.5516C16.1342 13.4365 15.9899 14.2099 15.7014 14.8716C15.413 15.5254 14.9642 16.0356 14.3552 16.4024C13.7542 16.7691 12.9728 16.9525 12.0112 16.9525C11.0656 16.9525 10.2883 16.7691 9.6793 16.4024C9.07028 16.0356 8.61752 15.5214 8.32102 14.8596C8.03253 14.1979 7.88829 13.4246 7.88829 12.5396C7.88829 11.6546 8.03253 10.8853 8.32102 10.2315C8.61752 9.57776 9.07028 9.0715 9.6793 8.71273C10.2883 8.34599 11.0696 8.16262 12.0232 8.16262C12.9769 8.16262 13.7542 8.34599 14.3552 8.71273C14.9642 9.0715 15.413 9.58175 15.7014 10.2435C15.9899 10.8972 16.1342 11.6666 16.1342 12.5516ZM10.0399 12.5516C10.0399 13.3887 10.1922 14.0464 10.4967 14.5248C10.8092 15.0032 11.3141 15.2423 12.0112 15.2423C12.7164 15.2423 13.2213 15.0032 13.5258 14.5248C13.8303 14.0464 13.9825 13.3887 13.9825 12.5516C13.9825 11.7144 13.8303 11.0567 13.5258 10.5783C13.2293 10.092 12.7284 9.84883 12.0232 9.84883C11.3181 9.84883 10.8092 10.092 10.4967 10.5783C10.1922 11.0567 10.0399 11.7144 10.0399 12.5516Z" fill="white"/>
<path d="M21.5901 10.1478C22.2873 10.1478 22.8482 10.3392 23.273 10.7218C23.7057 11.0966 23.9221 11.7065 23.9221 12.5516V16.8329H21.9027V13.1136C21.9027 12.6592 21.8265 12.3164 21.6743 12.0852C21.522 11.854 21.2816 11.7384 20.9531 11.7384C20.4562 11.7384 20.1197 11.9217 19.9434 12.2885C19.7751 12.6472 19.6909 13.1655 19.6909 13.8431V16.8329H17.6595V10.2674H19.1981L19.4746 11.1165H19.5707C19.7791 10.7976 20.0555 10.5584 20.4001 10.3989C20.7527 10.2315 21.1494 10.1478 21.5901 10.1478Z" fill="white"/>
<path d="M28.4787 10.1478C29.4083 10.1478 30.1456 10.4029 30.6905 10.9132C31.2354 11.4155 31.5078 12.1569 31.5078 13.1376V14.0704H27.3368C27.3529 14.5009 27.4931 14.8437 27.7575 15.0988C28.022 15.354 28.3986 15.4815 28.8874 15.4815C29.3121 15.4815 29.6968 15.4417 30.0414 15.3619C30.386 15.2822 30.7426 15.1546 31.1112 14.9792V16.4741C30.7906 16.6415 30.4461 16.7611 30.0774 16.8329C29.7088 16.9126 29.2561 16.9525 28.7192 16.9525C28.054 16.9525 27.461 16.8329 26.9402 16.5937C26.4273 16.3545 26.0226 15.9878 25.7261 15.4935C25.4376 14.9992 25.2934 14.3653 25.2934 13.592C25.2934 12.428 25.5859 11.563 26.1709 10.9969C26.7558 10.4308 27.5251 10.1478 28.4787 10.1478ZM28.5148 11.547C28.2023 11.547 27.9418 11.6467 27.7335 11.846C27.5332 12.0453 27.413 12.3522 27.3729 12.7668H29.6447C29.6367 12.416 29.5365 12.125 29.3442 11.8938C29.1599 11.6626 28.8834 11.547 28.5148 11.547Z" fill="white"/>
</svg>
