<svg width="60" height="65" viewbox="0 0 60 65" xmlns="http://www.w3.org/2000/svg" xmlns:xlink="http://www.w3.org/1999/xlink"><defs><linearGradient x1="50%" y1="2.434%" x2="50%" y2="100%" id="e"><stop stop-color="#1294EF" stop-opacity=".968" offset="0%"/><stop stop-color="#4FBCFA" offset="100%"/></linearGradient><linearGradient x1="50%" y1="2.434%" x2="50%" y2="100%" id="f"><stop stop-color="#1294EF" stop-opacity=".968" offset="0%"/><stop stop-color="#4FBCFA" offset="100%"/></linearGradient><linearGradient x1="50%" y1="2.434%" x2="50%" y2="100%" id="g"><stop stop-color="#30A7F4" offset="0%"/><stop stop-color="#4FBCFA" offset="100%"/></linearGradient><linearGradient x1="50%" y1="2.434%" x2="50%" y2="100%" id="h"><stop stop-color="#1294EF" stop-opacity=".968" offset="0%"/><stop stop-color="#4FBCFA" offset="100%"/></linearGradient><linearGradient x1="32.4%" y1="-45.591%" x2="55.526%" y2="88.819%" id="i"><stop stop-color="#62D4FA" offset="0%"/><stop stop-color="#33A9F4" offset="100%"/></linearGradient><linearGradient x1="0%" y1="58.218%" x2="136.025%" y2="35.958%" id="j"><stop stop-color="#1294EF" stop-opacity=".968" offset="0%"/><stop stop-color="#4FBCFA" offset="100%"/></linearGradient><linearGradient x1="180.486%" y1="29.826%" x2="5.657%" y2="58.096%" id="k"><stop stop-color="#1294EF" stop-opacity=".968" offset="0%"/><stop stop-color="#4FBCFA" offset="100%"/></linearGradient><linearGradient x1="12.583%" y1="66.306%" x2="71.395%" y2="40.654%" id="n"><stop stop-color="#1294EF" stop-opacity=".968" offset="0%"/><stop stop-color="#4FBCFA" offset="100%"/></linearGradient><linearGradient x1="55.924%" y1="42.794%" x2="49.064%" y2="50%" id="r"><stop stop-color="#FDE500" offset="0%"/><stop stop-color="#FBC600" offset="100%"/></linearGradient><linearGradient x1="1.474%" y1="-77.178%" x2="50%" y2="100%" id="t"><stop stop-color="#FDE500" offset="0%"/><stop stop-color="#FBC600" offset="100%"/></linearGradient><linearGradient x1="50%" y1="0%" x2="50%" y2="70.898%" id="u"><stop stop-color="#FFF" offset="0%"/><stop stop-color="#FFF" stop-opacity="0" offset="100%"/></linearGradient><path id="l" d="M0 .337h6.775v6.775H0z"/><path id="o" d="M.109.114h8.2v22.362H.11z"/><path id="q" d="M.197.355h7.294v21.19H.197z"/><filter x="-15.5%" y="-10.3%" width="131%" height="131%" filterUnits="objectBoundingBox" id="a"><feOffset dy="3" in="SourceAlpha" result="shadowOffsetOuter1"/><feGaussianBlur stdDeviation="2.5" in="shadowOffsetOuter1" result="shadowBlurOuter1"/><feColorMatrix values="0 0 0 0 0 0 0 0 0 0 0 0 0 0 0 0 0 0 0.03 0" in="shadowBlurOuter1"/></filter><filter x="-18.1%" y="-12.1%" width="136.2%" height="136.2%" filterUnits="objectBoundingBox" id="c"><feOffset dy="3" in="SourceAlpha" result="shadowOffsetOuter1"/><feGaussianBlur stdDeviation="2.5" in="shadowOffsetOuter1" result="shadowBlurOuter1"/><feColorMatrix values="0 0 0 0 0 0 0 0 0 0 0 0 0 0 0 0 0 0 0.04 0" in="shadowBlurOuter1"/></filter><circle id="b" cx="29.058" cy="29.058" r="29.058"/><circle id="d" cx="29.058" cy="29.058" r="24.832"/></defs><g fill="none" fill-rule="evenodd"><g transform="translate(1 .976)"><use fill="#000" filter="url(#a)" xlink:href="#b"/><use fill="#E0F6FF" xlink:href="#b"/></g><g transform="translate(1 .976)"><use fill="#000" filter="url(#c)" xlink:href="#d"/><use fill="#C5EEFF" xlink:href="#d"/></g><path d="M21.57 37.997c4.934-1.78 9.116-5.567 11.234-10.804 3.956-9.78-.73-20.283-10.537-24.241a19.101 19.101 0 00-11.676-.863c-.076.018-.315.095-.529.165" transform="translate(15.624 8.631)" stroke="url(#e)" stroke-width=".98"/><path d="M34.794 43.485c4.079-1.43 7.446-4.635 8.865-9.004 2.444-7.52-1.803-15.638-9.485-18.134-2.74-.89-5.52-1.114-8.216-.257" stroke="url(#f)" stroke-width="2.451" transform="translate(1 -1)"/><path d="M24.434 39.131l1.04-.298a.692.692 0 11.382 1.33l-1.04.298a.692.692 0 01-.382-1.33z" fill="#DF5246"/><path d="M33.981 28.764a3.386 3.386 0 116.476-1.984 3.386 3.386 0 01-6.476 1.984" fill="url(#g)" transform="translate(1 -1)"/><path d="M33.88 28.433a3.04 3.04 0 115.813-1.78 3.04 3.04 0 01-5.813 1.78" fill="url(#h)" transform="translate(1 -1)"/><path fill="#30A7F4" d="M27.859 47.44l-4.318 1.323-3.846-12.56 4.317-1.323z"/><path fill="url(#i)" d="M26.859 48.44l-3.288 1.007-2.87-9.371 3.288-1.007z" transform="translate(1 -1)"/><path d="M27.659 48.249c.157.515-.1 1.05-.577 1.196l-4.36 1.335c-.476.146-.99-.153-1.147-.668-.158-.515.1-1.05.577-1.196l4.359-1.335c.476-.146.99.153 1.148.668" fill="url(#j)" transform="translate(1 -1)"/><path d="M27.687 48.37a.773.773 0 00-.938-.433l-3.76 1.152a.774.774 0 00-.52.964.774.774 0 00.97.508l3.643-1.116c.438-.134.691-.6.605-1.074" fill="url(#k)" transform="translate(1 -1)"/><g transform="translate(10.25 30.576)"><mask id="m" fill="#fff"><use xlink:href="#l"/></mask><path d="M6.626 2.733A3.387 3.387 0 11.149 4.716a3.387 3.387 0 016.477-1.983" fill="#FFF" mask="url(#m)"/></g><path d="M14.961 37.437a3.04 3.04 0 11-1.78-5.815 3.04 3.04 0 011.78 5.815z" fill="#F9F9F9"/><path d="M18.616 35.835a1.698 1.698 0 01-1.123 2.115l-2.257.69a1.698 1.698 0 01-2.115-1.122l-1.743-5.692a1.698 1.698 0 011.123-2.115l2.257-.69a1.699 1.699 0 012.115 1.122l1.743 5.692z" fill="#30A7F4"/><path d="M17.622 36.854c.22.718-.212 1.493-.96 1.722l-1.893.58c-.748.229-1.54-.172-1.76-.89l-1.405-4.589c-.22-.718.212-1.492.96-1.721l1.894-.58c.747-.23 1.539.17 1.759.889l1.405 4.589z" fill="url(#n)" transform="translate(1 -1)"/><path d="M23.803 26.485l1.32 4.315 1.373 4.48s2.648-.643 6.098-.415c5.367.352 8.536 2.286 8.536 2.286l-3.1-10.122-.051-.166-3.1-10.123s-1.542 3.376-5.792 6.674c-2.73 2.12-5.284 3.07-5.284 3.07z" fill="#FBFBFB"/><path d="M31.054 24.564c-2.147 1.753-4.171 2.517-4.171 2.517l1.127 3.68 1.105 3.608a24.39 24.39 0 012.537-.085c.7-.033 1.514-.03 2.395.05 4.293.388 6.857 2.081 6.857 2.081l-2.645-8.637-.043-.141-.286-.934-.049-.16L35.571 19s-1.176 2.839-4.517 5.565" fill="#ECECEC"/><g transform="translate(33.995 15.428)"><mask id="p" fill="#fff"><use xlink:href="#o"/></mask><path d="M8.267 21.215a.975.975 0 01-1.865.57L.152 1.376a.976.976 0 011.864-.57l6.25 20.41z" fill="#F7B500" mask="url(#p)"/></g><g transform="translate(34.814 16.247)"><mask id="s" fill="#fff"><use xlink:href="#q"/></mask><path d="M.62.377C.267.485.103.968.253 1.457l5.934 19.377c.132.43.464.721.782.71a.975.975 0 00.48-1.148l-5.92-19.33C1.378.579.971.27.618.377" fill="url(#r)" mask="url(#s)"/></g><path d="M27.807 35.005a.772.772 0 01-.51.962l-9.568 2.93a.771.771 0 01-.961-.51l-2.93-9.568a.772.772 0 01.51-.961l9.568-2.93a.771.771 0 01.961.51l2.93 9.567z" fill="#F7B500"/><path d="M26.807 36.005l-2.704-8.83-8.88 2.719c-.38.116-.6.497-.493.848l2.54 8.292c.107.35.504.543.882.427l8.145-2.494a.772.772 0 00.51-.962" fill="url(#t)" transform="translate(1 -1)"/><path d="M31.266 19.62a13.748 13.748 0 013.828 9.537c0 7.618-6.176 13.794-13.795 13.794-3.7 0-7.059-1.457-9.536-3.828z" fill="url(#u)" opacity=".819" transform="rotate(7 32.103 38.96)"/></g></svg>