<svg xmlns="http://www.w3.org/2000/svg" xmlns:xlink="http://www.w3.org/1999/xlink" height="67.365" width="67.365" viewbox="0 0 67.365 67.365"><defs><path d="M0 .334h13.857v34.958H0z" id="g"/><path d="M.344.29h13.859v34.957H.344z" id="i"/><path d="M0 .043h6.79v8.195H0z" id="l"/><path d="M0 .043h3.394v8.194H0z" id="n"/><path d="M0 .043h6.79v8.195H0z" id="q"/><path d="M0 .043h3.394v8.194H0z" id="s"/><filter id="b" filterUnits="objectBoundingBox" height="1.311" width="1.311" y="-.104" x="-.156"><feOffset result="shadowOffsetOuter1" in="SourceAlpha" dy="3"/><feGaussianBlur result="shadowBlurOuter1" in="shadowOffsetOuter1" stdDeviation="2.5"/><feColorMatrix in="shadowBlurOuter1" values="0 0 0 0 0 0 0 0 0 0 0 0 0 0 0 0 0 0 0.03 0"/></filter><filter id="d" filterUnits="objectBoundingBox" height="1.364" width="1.364" y="-.121" x="-.182"><feOffset result="shadowOffsetOuter1" in="SourceAlpha" dy="3"/><feGaussianBlur result="shadowBlurOuter1" in="shadowOffsetOuter1" stdDeviation="2.5"/><feComposite result="shadowBlurOuter1" operator="out" in2="SourceAlpha" in="shadowBlurOuter1"/><feColorMatrix in="shadowBlurOuter1" values="0 0 0 0 0 0 0 0 0 0 0 0 0 0 0 0 0 0 0.04 0"/></filter><filter id="e" filterUnits="objectBoundingBox" height="1.342" width="1.317" y="-.171" x="-.159"><feOffset result="shadowOffsetOuter1" in="SourceAlpha" dy="1"/><feGaussianBlur result="shadowBlurOuter1" in="shadowOffsetOuter1" stdDeviation="1"/><feColorMatrix result="shadowMatrixOuter1" in="shadowBlurOuter1" values="0 0 0 0 0 0 0 0 0 0 0 0 0 0 0 0 0 0 0.1 0"/><feMerge><feMergeNode in="shadowMatrixOuter1"/><feMergeNode in="SourceGraphic"/></feMerge></filter><filter id="k" filterUnits="objectBoundingBox" height="2.3" width="2.625" y="-.65" x="-.812"><feOffset result="shadowOffsetOuter1" in="SourceAlpha" dy="1"/><feGaussianBlur result="shadowBlurOuter1" in="shadowOffsetOuter1" stdDeviation="1"/><feColorMatrix result="shadowMatrixOuter1" in="shadowBlurOuter1" values="0 0 0 0 0 0 0 0 0 0 0 0 0 0 0 0 0 0 0.2 0"/><feMerge><feMergeNode in="shadowMatrixOuter1"/><feMergeNode in="SourceGraphic"/></feMerge></filter><filter id="p" filterUnits="objectBoundingBox" height="2.3" width="2.625" y="-.65" x="-.812"><feOffset result="shadowOffsetOuter1" in="SourceAlpha" dy="1"/><feGaussianBlur result="shadowBlurOuter1" in="shadowOffsetOuter1" stdDeviation="1"/><feColorMatrix result="shadowMatrixOuter1" in="shadowBlurOuter1" values="0 0 0 0 0 0 0 0 0 0 0 0 0 0 0 0 0 0 0.2 0"/><feMerge><feMergeNode in="shadowMatrixOuter1"/><feMergeNode in="SourceGraphic"/></feMerge></filter><circle r="28.897" cy="28.897" cx="28.897" id="a"/><circle r="24.694" cy="28.897" cx="28.897" id="c"/><linearGradient gradientUnits="userSpaceOnUse" gradientTransform="scale(1.08424 .9223)" id="f" y2="37.129" x2="22.244" y1="-.053" x1="1.43"><stop offset="0%" stop-color="#B7EBE5"/><stop offset="100%" stop-color="#20B09B"/></linearGradient></defs><g fill-rule="evenodd" fill="none"><g transform="translate(4.786 1.773)"><use height="100%" width="100%" xlink:href="#a" filter="url(#b)" fill="#000"/><use height="100%" width="100%" xlink:href="#a" fill="#e0f6ff"/><use height="100%" width="100%" xlink:href="#c" filter="url(#d)" fill="#000"/><use height="100%" width="100%" xlink:href="#c" fill="#32c5ff" fill-opacity=".153"/><circle r="24.694" cy="28.897" cx="28.897" fill="#c5eeff"/></g><g transform="translate(13.559 12.496)" filter="url(#e)"><path d="M0 .41V32.1l13.857 3.267 12.309-2.902 13.858 3.267V4.042L26.166.775l-12.31 2.901z" fill="#fff"/><path d="M1.55 30.875l12.306 2.901 12.31-2.901 12.308 2.901V5.268L26.165 2.367 13.856 5.268 1.55 2.367z" fill="url(#f)"/><g transform="translate(0 .075)"><mask fill="#fff" id="h"><use height="100%" width="100%" xlink:href="#g"/></mask><path d="M0 .334l13.857 3.267v31.691L0 32.026z" mask="url(#h)" opacity=".078" fill="#223b4c"/></g><g transform="translate(25.82 .485)"><mask fill="#fff" id="j"><use height="100%" width="100%" xlink:href="#i"/></mask><path d="M.344.29v31.69l13.859 3.267V3.557z" mask="url(#j)" opacity=".121" fill="#223b4c"/></g></g><g stroke-width=".975" stroke-linecap="round"><path stroke="#202327" d="M21.989 39.756c.02-.078.043-.155.065-.233"/><path stroke-dasharray="0.498118, 2.49156" stroke="#fff" d="M22.94 37.198c2.806-5.886 9.373-10.273 17.292-10.818a23.473 23.473 0 014.303.096"/><path stroke="#202327" d="M45.772 26.653l.24.042"/></g><g transform="translate(18.723 32.588)" filter="url(#k)"><path fill="#fff" d="M3.43 5.436a2.034 2.034 0 110-4.068 2.034 2.034 0 010 4.068z"/><g transform="translate(0 .028)"><mask fill="#fff" id="m"><use height="100%" width="100%" xlink:href="#l"/></mask><path mask="url(#m)" fill="#3151b7" d="M3.396 5.218h-.028a1.809 1.809 0 11.028 0m2.4-4.181a3.383 3.383 0 00-2.4-.994A3.395 3.395 0 00.994 5.838l2.4 2.4h.001l2.4-2.4a3.385 3.385 0 00.995-2.4c0-.87-.332-1.738-.995-2.401"/></g><g transform="translate(3.396 .028)"><mask fill="#fff" id="o"><use height="100%" width="100%" xlink:href="#n"/></mask><path mask="url(#o)" fill="#2d4b98" d="M3.394 3.438c0 .868-.331 1.737-.994 2.4L0 8.238v-3.02A1.809 1.809 0 000 1.6V.043c.87 0 1.737.331 2.4.994.663.663.994 1.532.994 2.401"/></g><path fill="#2d4b98" d="M3.368 5.247a1.809 1.809 0 110-3.618 1.809 1.809 0 010 3.618m0-4.202a2.393 2.393 0 100 4.786 2.393 2.393 0 000-4.786"/></g><g transform="translate(42.606 19.688)" filter="url(#p)"><path fill="#fff" d="M3.43 5.436a2.034 2.034 0 110-4.068 2.034 2.034 0 010 4.068z"/><g transform="translate(0 .028)"><mask fill="#fff" id="r"><use height="100%" width="100%" xlink:href="#q"/></mask><path mask="url(#r)" fill="#f9db53" d="M3.396 5.218h-.028a1.809 1.809 0 11.028 0m2.4-4.181a3.383 3.383 0 00-2.4-.994A3.395 3.395 0 00.994 5.838l2.4 2.4h.001l2.4-2.4a3.385 3.385 0 00.995-2.4c0-.87-.332-1.738-.995-2.401"/></g><g transform="translate(3.396 .028)"><mask fill="#fff" id="t"><use height="100%" width="100%" xlink:href="#s"/></mask><path mask="url(#t)" fill="#f8d548" d="M3.394 3.438c0 .868-.331 1.737-.994 2.4L0 8.238v-3.02A1.809 1.809 0 000 1.6V.043c.87 0 1.737.331 2.4.994.663.663.994 1.532.994 2.401"/></g><path fill="#f8d548" d="M3.368 5.247a1.809 1.809 0 110-3.618 1.809 1.809 0 010 3.618m0-4.202a2.393 2.393 0 100 4.786 2.393 2.393 0 000-4.786"/></g></g></svg>