<svg xmlns="http://www.w3.org/2000/svg" xmlns:xlink="http://www.w3.org/1999/xlink" height="67.365" width="67.365" viewbox="0 0 67.365 67.365"><defs><filter id="b" filterUnits="objectBoundingBox" height="1.311" width="1.311" y="-.104" x="-.156"><feOffset result="shadowOffsetOuter1" in="SourceAlpha" dy="3"/><feGaussianBlur result="shadowBlurOuter1" in="shadowOffsetOuter1" stdDeviation="2.5"/><feColorMatrix in="shadowBlurOuter1" values="0 0 0 0 0 0 0 0 0 0 0 0 0 0 0 0 0 0 0.03 0"/></filter><filter id="d" filterUnits="objectBoundingBox" height="1.364" width="1.364" y="-.121" x="-.182"><feOffset result="shadowOffsetOuter1" in="SourceAlpha" dy="3"/><feGaussianBlur result="shadowBlurOuter1" in="shadowOffsetOuter1" stdDeviation="2.5"/><feComposite result="shadowBlurOuter1" operator="out" in2="SourceAlpha" in="shadowBlurOuter1"/><feColorMatrix in="shadowBlurOuter1" values="0 0 0 0 0 0 0 0 0 0 0 0 0 0 0 0 0 0 0.04 0"/></filter><filter id="h" filterUnits="objectBoundingBox" height="1.246" width="1.316" y="-.088" x="-.158"><feOffset result="shadowOffsetOuter1" in="SourceAlpha" dy="1"/><feGaussianBlur result="shadowBlurOuter1" in="shadowOffsetOuter1" stdDeviation="1"/><feComposite result="shadowBlurOuter1" operator="out" in2="SourceAlpha" in="shadowBlurOuter1"/><feColorMatrix in="shadowBlurOuter1" values="0 0 0 0 0 0 0 0 0 0 0 0 0 0 0 0 0 0 0.11 0"/></filter><filter id="j" filterUnits="objectBoundingBox" height="1.158" width="1.076" y="-.079" x="-.043"><feOffset result="shadowOffsetOuter1" in="SourceAlpha"/><feGaussianBlur result="shadowBlurOuter1" in="shadowOffsetOuter1" stdDeviation=".5"/><feColorMatrix in="shadowBlurOuter1" values="0 0 0 0 0 0 0 0 0 0 0 0 0 0 0 0 0 0 0.11366368 0"/></filter><linearGradient gradientUnits="userSpaceOnUse" gradientTransform="scale(1.14815 .87097)" id="e" y2="52.118" x2="26.806" y1="25.47" x1="26.806"><stop offset="0%" stop-color="#FDE500"/><stop offset="100%" stop-color="#FBC600"/></linearGradient><linearGradient gradientUnits="userSpaceOnUse" gradientTransform="scale(1.07453 .93064)" id="f" y2="37.44" x2="20.561" y1="15.902" x1="20.561"><stop offset="0%" stop-color="#FFF"/><stop offset="70.898%" stop-opacity="0" stop-color="#FFF"/></linearGradient><linearGradient gradientUnits="userSpaceOnUse" gradientTransform="scale(1.35563 .73766)" id="k" y2="61.565" x2="24.732" y1="35.794" x1="24.732"><stop offset="0%" stop-color="#FDE500"/><stop offset="100%" stop-color="#FBC600"/></linearGradient><circle r="28.897" cy="28.897" cx="28.897" id="a"/><circle r="24.694" cy="28.897" cx="28.897" id="c"/><path id="i" d="M23.125 26.404h26.897a.975.975 0 01.934 1.252l-5.054 17.04a.975.975 0 01-.935.697H18.544c-.633.044-1.126.02-1.476-.071-.351-.092-.687-.283-1.008-.574l6.144-17.69a.975.975 0 01.921-.654z"/><path d="M20.658 16.38h3.092v2.887h-3.092z" id="l"/><rect rx=".975" height="28.484" width="22.154" y="12.689" x="10.179" id="g"/></defs><g transform="translate(4.786 1.773)" fill-rule="evenodd" fill="none"><use height="100%" width="100%" xlink:href="#a" filter="url(#b)" fill="#000"/><use height="100%" width="100%" xlink:href="#a" fill="#e0f6ff"/><use height="100%" width="100%" xlink:href="#c" filter="url(#d)" fill="#000"/><use height="100%" width="100%" xlink:href="#c" fill="#32c5ff" fill-opacity=".153"/><circle r="24.694" cy="28.897" cx="28.897" fill="#c5eeff"/><path fill="#fae100" d="M15.94 20.573h21.18c.27 0 .488.218.488.487v6.41c0 .27-.218.487-.488.487H15.94a.487.487 0 01-.487-.487v-6.41c0-.27.219-.487.488-.487z"/><path fill="url(#e)" d="M16.454 22.184H45.1c.538 0 .975.436.975.975v21.26a.975.975 0 01-.975.974H16.454a.975.975 0 01-.974-.975v-21.26c0-.538.436-.974.974-.974z"/><path opacity=".663" fill="url(#f)" d="M11.498 14.8H32.69c.538 0 .975.435.975.974v18.095a.975.975 0 01-.975.974h-8.833a.975.975 0 01-.805-.425l-12.36-18.094a.975.975 0 01.805-1.525z"/><rect rx=".975" height="27.984" width="21.654" y="15.049" x="13.594" fill="#f3f3f3" stroke-width=".5" stroke="#f3f3f3"/><use height="100%" width="100%" xlink:href="#g" filter="url(#h)" fill="#000"/><rect rx=".975" height="27.984" width="21.654" y="12.939" x="10.429" fill="#fff" stroke-linejoin="square" stroke-width=".5" stroke="#fff"/><use height="100%" width="100%" xlink:href="#i" filter="url(#j)" fill="#000"/><use height="100%" width="100%" xlink:href="#i" fill="url(#k)"/><path fill="#fce98f" fill-opacity=".624" d="M47.572 39.066l-1.67 5.63a.975.975 0 01-.935.697H18.544c-.633.044-1.126.02-1.476-.071-.351-.092-.687-.283-1.008-.574l1.96-5.641z"/><mask fill="#fff" id="m"><use height="100%" width="100%" xlink:href="#l"/></mask><path transform="rotate(-8 22.204 17.823)" mask="url(#m)" fill="#a5b2c6" d="M22.895 16.38l-.163 2.24 1.018.647-3.092-.046s.24-2.335 2.237-2.841"/><path fill="#a5b2c6" d="M17.956 34.582a.786.786 0 11-1.462-.578.786.786 0 011.462.578m8.03-14.993c.391-.99-.45-2.467-1.647-3.264l-.002 2.245-1.59.473-2.293.012a.338.338 0 00-.336.35l.019.553a.338.338 0 00.313.325l.033.003s.21 1.27.193 1.696c-.016.425-.684 2.006-1.034 2.89l-3.575 9.039.004.001a1.216 1.216 0 002.286.829l3.605-10.585c.355-.899.734-1.656 1.906-2.488 1.172-.833 1.726-1.089 2.118-2.079"/><path fill="#c8d5e8" d="M24.34 16.325l-.003 2.245-1.59.473-2.293.012a.338.338 0 00-.336.35l.019.542c.006.177.148.32.325.326l4.99.189a2.67 2.67 0 00.534-.873c.391-.99-.45-2.467-1.647-3.264z"/><path fill="#6f7f96" d="M22.48 21.289a.127.127 0 01-.128.124l-.94-.014a.127.127 0 01-.124-.129l.014-.94a.127.127 0 01.129-.124l.94.014c.07.002.125.06.124.129z"/><path fill="#c8d5e8" d="M21.656 21.133a.116.116 0 11-.232-.003l.01-.655a.116.116 0 01.232.004zm.346.006a.116.116 0 01-.232-.004l.01-.654a.116.116 0 11.232.003zm.347.005a.117.117 0 01-.233-.004l.01-.654a.117.117 0 11.233.004zm-4.636 11.717a.547.547 0 01-.308-.706l2.66-6.85a.386.386 0 01.501-.22c.202.08.305.305.234.51l-2.404 6.953a.52.52 0 01-.683.313z"/></g></svg>