<svg xmlns="http://www.w3.org/2000/svg" xmlns:xlink="http://www.w3.org/1999/xlink" height="67.365" width="67.365" viewbox="0 0 67.365 67.365"><defs><path d="M.317.374h24.291v3.525H.317z" id="f"/><path d="M.168.472h6.94v1.302H.168z" id="h"/><path d="M0 .472h6.94v1.302H0z" id="j"/><filter id="b" filterUnits="objectBoundingBox" height="1.311" width="1.311" y="-.104" x="-.156"><feOffset result="shadowOffsetOuter1" in="SourceAlpha" dy="3"/><feGaussianBlur result="shadowBlurOuter1" in="shadowOffsetOuter1" stdDeviation="2.5"/><feColorMatrix in="shadowBlurOuter1" values="0 0 0 0 0 0 0 0 0 0 0 0 0 0 0 0 0 0 0.03 0"/></filter><filter id="d" filterUnits="objectBoundingBox" height="1.364" width="1.364" y="-.121" x="-.182"><feOffset result="shadowOffsetOuter1" in="SourceAlpha" dy="3"/><feGaussianBlur result="shadowBlurOuter1" in="shadowOffsetOuter1" stdDeviation="2.5"/><feColorMatrix in="shadowBlurOuter1" values="0 0 0 0 0 0 0 0 0 0 0 0 0 0 0 0 0 0 0.04 0"/></filter><circle r="28.897" cy="28.897" cx="28.897" id="a"/><circle r="24.694" cy="28.897" cx="28.897" id="c"/><linearGradient gradientUnits="userSpaceOnUse" gradientTransform="scale(.95752 1.04436)" id="e" y2="27.129" x2="21.018" y1="9.278" x1="21.018"><stop offset="0%" stop-opacity=".968" stop-color="#1294EF"/><stop offset="100%" stop-color="#4FBCFA"/></linearGradient></defs><g fill-rule="evenodd" fill="none"><g transform="translate(4.786 1.773)"><use height="100%" width="100%" xlink:href="#a" filter="url(#b)" fill="#000"/><use height="100%" width="100%" xlink:href="#a" fill="#e0f6ff"/></g><g transform="translate(4.786 1.773)"><use height="100%" width="100%" xlink:href="#c" filter="url(#d)" fill="#000"/><use height="100%" width="100%" xlink:href="#c" fill="#c5eeff"/></g><path transform="translate(13.559 14.202)" fill="url(#e)" d="M28.885 28.333V17.984a8.76 8.76 0 10-17.52 0v10.349z"/><path fill="#2487d2" d="M35.729 40.533v-2.415a2.045 2.045 0 00-4.09 0v2.416h4.09z"/><path fill="#1294ef" d="M44.612 43.613v-2.217a.916.916 0 00-.916-.916H23.943a.916.916 0 00-.916.916v2.217z"/><g transform="translate(21.357 41.977)"><mask fill="#fff" id="g"><use height="100%" width="100%" xlink:href="#f"/></mask><path mask="url(#g)" fill="#202327" d="M24.608 3.9V1.403a1.03 1.03 0 00-1.03-1.03H1.347A1.032 1.032 0 00.316 1.404V3.9h24.291z"/></g><path opacity=".186" fill="#fff" d="M25.625 39.387v-7.382a.54.54 0 01.493-.547.526.526 0 01.559.526v7.383a.54.54 0 01-.494.546.527.527 0 01-.558-.526m3.508-13.546a.54.54 0 00-.735.036l-.3.299-.334.335-.313.314a.526.526 0 00.024.766.54.54 0 00.735-.037l.298-.298.336-.336.313-.313a.525.525 0 00-.024-.766"/><path opacity=".039" fill="#1a1a1a" d="M44.612 42.35v-.954a.916.916 0 00-.916-.916h-1.251v-8.294a8.76 8.76 0 00-10.88-8.502 8.763 8.763 0 016.643 8.502v8.294h1.25c.507 0 .917.41.917.916v.955h.323c.57 0 1.03.462 1.03 1.03v2.495h4.238v-2.493c0-.57-.462-1.03-1.031-1.03h-.323z"/><path opacity=".28" fill="#1294ef" d="M43.008 25.003a.651.651 0 010-.92l1.769-1.768a.65.65 0 11.92.92l-1.77 1.769a.651.651 0 01-.92 0"/><path opacity=".282" fill="#1294ef" d="M24.36 25.003a.651.651 0 000-.92l-1.767-1.768a.65.65 0 10-.92.92l1.768 1.769a.651.651 0 00.92 0"/><path opacity=".282" fill="#2487d2" d="M26.405 23.333a.65.65 0 01-.902-.182l-3.114-4.702a.651.651 0 011.085-.72l3.114 4.703a.65.65 0 01-.183.902"/><path opacity=".28" fill="#2487d2" d="M44.678 27.047a.65.65 0 01.183-.902l4.702-3.113a.65.65 0 11.718 1.085L45.58 27.23a.65.65 0 01-.902-.183"/><path opacity=".282" fill="#2487d2" d="M22.716 27.009a.65.65 0 01-.901.18l-4.691-3.13a.651.651 0 01.722-1.082l4.69 3.13c.3.199.38.603.18.902"/><path opacity=".28" fill="#2487d2" d="M41.003 23.359a.651.651 0 01-.18-.902l3.13-4.691a.65.65 0 011.082.722l-3.13 4.69a.65.65 0 01-.902.18"/><path opacity=".5" fill="#1294ef" d="M33.685 21.142a.65.65 0 01-.651-.65v-5.64a.65.65 0 111.3 0v5.64a.65.65 0 01-.65.65"/><g transform="translate(46.702 33.204)" opacity=".5"><mask fill="#fff" id="i"><use height="100%" width="100%" xlink:href="#h"/></mask><path mask="url(#i)" fill="#1294ef" d="M.168 1.123c0-.36.291-.65.65-.65h5.64a.65.65 0 010 1.3H.818a.65.65 0 01-.65-.65"/></g><g transform="translate(13.559 33.204)" opacity=".5"><mask fill="#fff" id="k"><use height="100%" width="100%" xlink:href="#j"/></mask><path mask="url(#k)" fill="#1294ef" d="M6.94 1.123a.65.65 0 00-.65-.65H.65a.65.65 0 000 1.3h5.64a.65.65 0 00.65-.65"/></g><path opacity=".5" fill="#2487d2" d="M36.31 21.406a.65.65 0 01-.507-.767l.497-2.452a.651.651 0 011.276.26l-.498 2.45a.65.65 0 01-.767.509m10.295 15.547a.65.65 0 01.767-.508l2.452.498a.65.65 0 11-.26 1.275l-2.451-.498a.65.65 0 01-.508-.767M20.763 31.7a.65.65 0 00-.507-.767l-2.452-.498a.65.65 0 00-.26 1.275l2.452.498a.65.65 0 00.767-.508m10.34-10.304a.65.65 0 01-.764-.51l-.49-2.454a.65.65 0 011.276-.255l.49 2.453a.651.651 0 01-.51.766m15.51 10.35a.65.65 0 01.51-.766l2.454-.49a.651.651 0 01.255 1.277l-2.454.49a.65.65 0 01-.765-.511m-25.861 5.16a.65.65 0 00-.765-.51l-2.453.49a.65.65 0 10.255 1.276l2.453-.49a.65.65 0 00.51-.765"/></g></svg>